<?xml version="1.0" encoding="utf-8"?>
<!-- Generator: Adobe Illustrator 25.0.0, SVG Export Plug-In . SVG Version: 6.00 Build 0)  -->
<svg version="1.1" id="图层_1" xmlns="http://www.w3.org/2000/svg" xmlns:xlink="http://www.w3.org/1999/xlink" x="0px" y="0px"
	 viewBox="0 0 566.9 566.9" style="enable-background:new 0 0 566.9 566.9;" xml:space="preserve">
<g>
	
		<image style="overflow:visible;opacity:0.75;" width="1831" height="1776" xlink:href="57FDDCE8.png"  transform="matrix(0.24 0 0 0.24 69.0246 29.4246)">
	</image>
	<g>
		<g>
			<path d="M476.8,299c19.6-52.1,12.1-142.9-49.8-202.6C365,36.7,259.7,16.2,178.7,64c-70.3,41.5-116.3,125-97.2,217.9
				c16.9,82.7,78.7,136,132.5,151.7c-0.7-1.9-2.5-2.1-3.9-2.8c-14.7-7.3-30.1-13.6-43.3-23.6c-27.9-21.1-50.6-46.6-66.2-78.2
				c-11.9-23.9-18.6-49.1-20-75.7c-1.4-26.4,2.5-52,11.3-77c8.7-24.8,21.8-46.9,39.1-66.2c22.4-25,49.6-43.1,81.9-53.3
				c23-7.3,46.5-10.2,70.5-8.1c38.3,3.4,71.2,19,99,45.2c33.1,31.3,53.1,70.2,63.1,114.1c11.3,49.8,9.1,99.2-6.4,147.9
				c-1.5,4.8-3.4,9.7-3.8,16.1c8.6-7.4,12.8-16.1,16.3-25.1c9.2-23,13.2-47.2,13.2-71.8c0.1-47.9-10.8-93.1-35.2-134.6
				c-16.1-27.5-37.4-50.2-64-67.6c-22.3-14.5-46.6-24.3-72.8-29.1c-2.5-0.5-5.1-0.7-7.6-2.3c3.4-1.6,3.3-1.6,5.8-1.5
				c17.8,0.7,34.8,5,51.4,11.3c34.7,13,62.3,34.7,83.4,64.9c18.3,26.2,31.4,54.8,38.9,85.9c6.3,26,9,52.5,10.8,79.1
				C475.8,286.7,476.3,292.3,476.8,299z"/>
			<path d="M366.1,132.7c0.2,5.7,2.9,10.5,5.4,15.3c12.9,24.5,18.5,50.9,19.3,78.3c0.9,28.8-3.7,56.6-13.3,83.8
				c-7.2,20.5-16.7,39.9-28.3,58.2c-14.2,22.2-30.4,42.9-49.5,61.2c-0.8,0.7-1.9,1.4-1.1,3.4c7.1-1.5,13.8-4.2,20.1-7.9
				c20.5-12.2,35-30.1,47.1-50.1c15.4-25.3,25.1-52.8,31.3-81.7c6.2-28.7,6.8-57.4,1.4-86.3c-3.4-18.3-9.5-35.7-18-52.2
				C376.4,147,371.9,139.5,366.1,132.7z"/>
			<path d="M336.6,431.5c0.3,0.4,0.7,0.8,1,1.2c3.9-2,8.2-3.6,11.8-6.1c21.5-14.8,36-35.4,46.7-58.6c11.3-24.4,18.9-50,23.1-76.7
				c7.9-50.4,1.6-98.2-23.9-142.9c-8.9-15.7-18.9-30.6-32.4-42.9c-1.5-1.3-2.8-3.2-5.8-2.8c1,1.4,1.7,2.4,2.3,3.3
				c7.8,11.2,17.4,21.1,24.2,33c16.3,28.4,24.2,59.4,25.9,91.9c1.8,34.3-2.6,67.7-14.5,100.1c-10.4,28.3-23.7,55-42,79
				C347.4,417.3,342,424.4,336.6,431.5z"/>
			<path d="M386.2,410.3c1.5,0.8,2.3,0.1,3-0.6c8.2-7.6,16.3-15.4,22.5-24.7c14.6-21.9,23.8-46.1,28.5-71.9
				c6.6-36.7,5.6-73.3-3.8-109.4c-8.6-33-22.8-63.2-45.4-89c-12.3-14-25.8-27-41.9-36.8c-2.6-1.6-5-3.4-9.3-2.8
				c9.5,6.3,17.3,13.3,25.1,20.3c13.5,12,25.4,25.5,34.8,41c13.2,21.9,21.7,45.5,26.4,70.7c5.9,31.8,6.2,63.6,1.2,95.4
				c-4.8,30.6-15.6,59.4-29.7,86.9C393.8,396.4,390,403.3,386.2,410.3z"/>
			<path d="M365,162.7c0.5,2.6,0.8,5.2,1.4,7.8c0.6,2.8,1.5,5.4,2.2,8.2c8.4,36.7,5.4,72.7-6.1,108.3
				c-10.5,32.6-27.3,61.7-48.6,88.3c-12.9,16.2-26.9,31.3-43.3,44c-1.9,1.4-5.4,3-4.2,5.4c1,2.2,4.6,0.8,7,0.5
				c18.5-2.6,31.7-14,43.6-27.1c21.7-23.8,36.8-51.7,49.2-81.2c15.2-36.3,20.7-73.9,13.2-112.9C376.5,189.6,372.2,175.7,365,162.7z"
				/>
			<path d="M357.6,192.6c-0.1,0.8-0.2,1.6-0.2,2.4c0,9,0.7,18-0.2,27c-3.2,33.3-13.9,64.1-30.3,93.3c-13,23.1-28.9,43.8-47.9,62.3
				c-10.4,10.2-22.4,18.4-33,28.2c-1,1-3,1.6-2.3,3.4c0.6,1.6,2.4,1.6,3.8,1.8c6.5,1,12.6-0.2,18.3-3.3
				c13.3-7.1,23.9-17.5,33.5-28.8c13.8-16.3,26.1-33.6,36.7-52.2c9-15.9,16.8-32.1,21.3-49.9C364.2,248.8,365.9,220.7,357.6,192.6z"
				/>
			<path d="M345.2,217.7c-2.6,1-2.3,3-2.7,4.5c-6.3,22.4-12.1,45-23.1,65.8c-16.3,30.7-37.7,57.2-64.2,79.6
				c-7.1,6-14.6,11.6-21.9,17.4c-1.6,1.3-4.5,2.7-3.7,4.8c0.9,2.5,4.1,2.4,6.5,2.3c6.1-0.3,11.7-2.3,16.8-5.7
				c22.4-14.8,38.9-35.4,54.9-56.2c9.5-12.4,16.9-26.3,23.3-40.6c8-18,12.8-36.8,14.3-56.4C345.9,228.1,345.3,223,345.2,217.7z"/>
			<path d="M327.6,232.8c-1.9,0.2-2.2,1.2-2.6,2.2c-6.5,15.7-13.9,30.8-22.6,45.4c-13.6,22.9-30.5,42.7-49.8,60.7
				c-9.6,9-19.7,17.5-30.5,25c-1.1,0.7-2.6,1.3-2.3,2.9c0.4,1.8,2.3,1.8,3.7,1.9c4,0.3,8-0.2,11.7-1.8c9.5-4.3,18.2-9.9,25.6-17.1
				c27.4-26.6,50.1-56.4,61.8-93.5C325.3,250.2,327,241.7,327.6,232.8z"/>
			<path d="M309.2,242.9c-2.5,0.6-2.8,1.9-3.6,3c-9.4,14.3-18.3,29-28.8,42.5c-12.9,16.6-26.4,32.5-44.2,44.3
				c-5.1,3.4-9.7,7.5-14.5,11.4c-1.2,1-3.1,2.1-2.2,4c0.7,1.6,2.6,1.2,4.1,1.1c7.4-0.5,14.1-3,19.6-7.8
				c25.2-21.8,47.3-46.3,62.3-76.5C305.3,258.2,307.9,251.1,309.2,242.9z"/>
			<path d="M288.3,255.8c-0.4-0.3-0.8-0.5-1.2-0.8c-1.3,1.3-2.8,2.4-3.8,3.8c-7.2,11.4-17.1,20.4-26.3,30
				c-11.9,12.4-24.3,24.3-38.7,33.8c-1.6,1-4.1,2.2-3.2,4.4c1,2.5,3.7,1.3,5.8,1.2c0.7,0,1.3-0.3,1.9-0.5c7.8-2.1,14-6.9,19.8-12.2
				c12.6-11.7,24.1-24.4,33.5-38.9C280.4,269.9,285.1,263.2,288.3,255.8z"/>
			<path d="M222.4,307.8c18.8-10.2,32.4-25.8,44.9-42.6c-0.4-0.4-0.8-0.8-1.1-1.2C251.5,278.6,236.9,293.2,222.4,307.8z"/>
			<path d="M248.3,268.3c-8.8,5.4-16.3,12.2-21.6,21.1C234.9,283.3,242.8,277,248.3,268.3z"/>
		</g>
	</g>
</g>
<g>
	
		<image style="overflow:visible;opacity:0.75;" width="1313" height="395" xlink:href="57FDDCE9.png"  transform="matrix(0.24 0 0 0.24 135.5046 462.1446)">
	</image>
	<g>
		<g>
			<path d="M161.4,476.4l0.4-0.5c0.2-0.3,0.6-0.5,1-0.6s0.8-0.2,1.2-0.4l7.2-2c0.7-0.2,1.5-0.3,2.5-0.4l1.6-0.5
				c0.4-0.2,1-0.3,1.8-0.3l1.6-0.3c0.1,0,0.2,0.1,0.3,0.4s0.2,0.4,0.2,0.4c1.5-1,2.5-1.5,2.9-1.5h0.1l1.2,0.3c0.2,0,0.4-0.1,0.6-0.4
				l0.2-0.2c0.7,0.3,1.1,0.5,1.2,0.5c0.5,0,1-0.1,1.7-0.3c0.6-0.2,1.2-0.3,1.8-0.3l1.5,0.1l3.4-0.2c0.2,0,0.4,0.1,0.6,0.3l1-0.2
				c0.9,0,1.9,0.1,2.8,0.4c0.9,0.3,2,0.5,3.3,0.6c1.3,0.1,2.2,0.6,2.8,1.3l0.8,0.3h0.6c0.8,0,1.4,0.3,1.5,1c0.2,0.4,0.6,0.8,1.2,1.2
				l0.6,1c-0.1,0.2-0.1,0.4-0.1,0.6s0.4,0.4,1.1,0.7l0.2,0.1c0,0.5,0.3,1,0.9,1.7s0.9,1.8,0.9,3.5v1.2l0.2,2.5
				c0,1.7-0.5,3.8-1.5,6.2s-2.1,4.2-3.2,5.1c-0.3,0.9-0.6,1.3-0.9,1.3c-1.1,1-1.9,1.6-2.2,1.6c-0.1,0-0.2,0-0.3-0.1
				c-0.4,0.8-1.1,1.5-2.1,2.1s-1.6,0.9-1.9,1s-1,0.4-2.2,0.8l-1.2-0.3c-0.5,0.5-0.8,0.7-1,0.7L193,506c-2.2,0.6-3.6,0.9-4.3,0.9
				l-1.2-0.4c-0.2,0-0.5,0.2-0.9,0.7l-0.9,0.2c-0.2-0.2-0.8-0.3-1.9-0.4c-0.5,0.3-0.8,0.4-1.1,0.4l-2.1,0.3c-0.3,0-0.4-0.2-0.5-0.7
				l-0.4,0.1l-0.2,0.7c-0.1,0.1-0.3,0.1-0.5,0.1l-2.6-0.3l-1.2,0.3l-2-0.4l-1,0.1l-0.8-0.4l-0.8,0.1l-0.8-0.2l-0.9,0.2l-0.2-0.1
				c-0.1,0.3-0.3,0.5-0.5,0.6c-0.2,0.2-0.5,0.5-0.8,1c-0.7,0.6-1.2,1.4-1.4,2.2c-0.2,0.9-0.8,1.4-1.7,1.5c-0.1,0.1-0.2,0.3-0.3,0.5
				c0.1,0.1,0.2,0.3,0.3,0.8v0.2c0,0.8-0.6,1.6-1.9,2.4c-0.2,1.2-0.4,2-0.7,2.5c-0.3,0.5-0.5,1-0.6,1.3s-0.4,0.6-0.8,0.9l-0.2,0.3
				v1.4c0,0.1-0.1,0.3-0.3,0.6s-0.5,0.8-0.8,1.5l-0.3,0.5l-0.4,1.6c-0.7,0.5-1,1.1-1,1.9l0.1,2.8c0,0.5-0.3,1-1,1.5
				c-0.6,0.5-1.3,0.8-1.9,0.8c-1.6,0-2.7-1-3.3-2.9l-0.3-0.4c-0.7-0.6-1-1.4-1-2.5c0-1.3,0.7-3.2,2-5.7l3.2-5.8
				c0-0.1,0.5-0.4,1.3-0.9l0.5,0.2c0.1-0.1,0.2-0.2,0.2-0.4c0-0.1-0.2-0.5-0.5-1.4v-0.2c0-0.3,0.1-0.4,0.3-0.5l0.4-0.4l-0.1-1
				c0.6-0.9,0.9-1.4,0.9-1.7l0.5-1.1c0.3-0.7,0.6-1.1,0.8-1.2c0-1.3,0.4-2.3,1.2-2.9l0.4-0.8c0.1-0.2,0.3-0.3,0.6-0.3
				c0.3,0,0.5-0.1,0.5-0.1c0-0.1,0-0.3-0.1-0.5s-0.1-0.4-0.1-0.5c0-0.3,0.2-0.7,0.6-1.3c0.4-0.5,0.6-0.8,0.8-0.8l0.7,0.4v-0.3
				c-0.3-0.3-0.5-0.5-0.5-0.7c0-0.3,0.1-0.6,0.4-1s0.5-0.8,0.5-1l0.4-0.5c0.1,0,0.2-0.5,0.5-1.4c0.3-0.9,0.6-1.4,1.1-1.3v-0.5
				c0-0.3,0.4-1.1,1.1-2.3l2.6-4.6c0.1-0.3,0.3-0.9,0.8-1.7l-0.1-1.2c0-0.5,0.3-1.3,0.9-2.4c0.6-1.1,1.1-1.7,1.5-1.7
				c0.2,0,0.3,0,0.4,0.1c0.1,0.1,0.2,0.1,0.2,0.1l0.8-0.1l1.6,1.4c0.4,0.4,0.7,1,0.7,1.9l0.2,0.3c0.8,1.5,1.2,2.6,1.2,3.2
				c0,0.8-0.1,1.4-0.2,1.8c-0.1,0.4-0.6,0.9-1.5,1.4c-0.8,0.9-1.3,1.8-1.5,2.5c-0.2,0.7-0.5,1.4-1,2c-0.5,0.6-0.9,1.5-1.2,2.7
				c-0.4,1.2-1,2.1-1.9,2.7c-0.1,0.9-0.2,1.6-0.4,2.2v0.1c0,0.2,0.1,0.3,0.4,0.3l1.6-0.2c0.2,0,0.4,0,0.7,0.1
				c0.3,0.1,0.5,0.1,0.8,0.1c0.3,0,0.6-0.1,1-0.4h0.3c0.1,0,0.5,0.2,1.2,0.5l0.2-0.1c0.2-0.3,0.4-0.5,0.6-0.5l1.9,0.2l0.9-0.1
				c0.5-0.3,1.2-0.5,2.1-0.5c1,0,1.6-0.1,2-0.3c0.4-0.2,0.7-0.3,1-0.3c0.3,0,0.7-0.2,1.1-0.4c0.5-0.2,0.9-0.3,1.2-0.3
				c0.7,0,1.8-0.3,3.1-1c0.5,0.1,0.7,0.2,0.8,0.2c0.6,0,1.1-0.3,1.5-0.8c0.4-0.5,0.8-0.8,1.3-0.9l3-1.3c0.3-0.1,0.8-0.6,1.7-1.6
				l0.9-0.6l0.6-0.8c0-0.1,0.3-0.3,0.9-0.6c-0.1-0.1-0.2-0.2-0.3-0.3l1.1-1.2c-0.1-0.3-0.1-0.5-0.1-0.6v-0.2c0.3-0.5,0.7-0.8,1-1.1
				c0.3-0.2,0.5-0.4,0.5-0.4l-0.5-0.6c0.5-0.5,0.7-0.7,0.7-0.9l-0.2-1.4l0.2-2.5c0-1.3-0.1-2.1-0.2-2.5c-0.2-0.4-0.3-0.8-0.3-1.1
				c-0.6-1.2-1.5-2.2-2.6-3c-0.1-0.1-0.1-0.2-0.1-0.3l-0.1-0.5v-0.2l-1.6,0.2c-0.1,0-0.2-0.2-0.3-0.5c-0.1-0.3-0.4-0.5-0.7-0.5
				l-0.7,0.3h-0.1c-0.2,0-0.8-0.3-1.7-0.9c-0.2-0.1-0.6-0.1-1.2-0.1l-0.7-0.3c-0.2-0.1-0.4-0.2-0.5-0.2h-0.3l-1.1,0.2l-2.5-0.2
				l-1.5-0.3c-0.6,0.4-0.9,0.6-1.1,0.6c-0.1,0-0.4-0.1-0.9-0.3h-0.1l-1.5,0.2c-0.5,0.1-0.8,0.1-1.1,0.2h-0.3c-1.1,0-1.9-0.1-2.5-0.3
				h-0.3c-0.4,0-0.7,0.1-0.9,0.4c-0.2,0.2-0.4,0.4-0.6,0.4c-0.1,0-0.3-0.2-0.5-0.6c-0.4,0.3-0.7,0.5-0.9,0.6l-0.9-0.3
				c-0.1,0.3-1.1,0.5-3,0.8l-2.3,0.5l-0.4-0.1c-0.8,0.3-1.4,0.4-1.9,0.5s-0.9,0.2-1.3,0.4c-0.4,0.2-0.8,0.3-1.2,0.4
				c-0.4,0.1-1,0.2-1.9,0.5l-0.8-0.2c-0.6,0.4-1.5,0.8-2.7,1.3s-1.9,0.9-2.2,1.2s-0.6,0.4-0.8,0.4c-0.1,0-0.3,0-0.6-0.1h-0.1
				c-0.3,0-0.8,0.3-1.4,1c-0.7,0.7-1.2,1.1-1.7,1.4s-0.9,0.8-1.3,1.4c-0.4,0.6-1.2,1.1-2.6,1.4c-0.1,0.1-0.1,0.2-0.2,0.3v0.8
				c-0.5,0.3-1,0.9-1.4,1.7l-0.3,0.5l-0.1,0.9c0,1-0.1,1.5-0.4,1.6c-0.3,0.1-0.5,0.2-0.8,0.4c-0.3,0.2-0.5,0.3-0.8,0.3
				c-0.6,0-1.1-0.5-1.6-1.5s-0.7-1.6-0.7-1.8c0-1.9,0.6-3.3,1.9-4.2l3.6-2.6c1.2-0.9,2.2-1.3,3.1-1.3c0.3-0.1,0.5-0.4,0.8-0.9
				s1-0.8,2-1.1l0.8,0.3c0.1,0,0.2-0.1,0.3-0.4c0.1-0.3,0.3-0.5,0.6-0.6c0.3-0.2,0.5-0.4,0.7-0.6l1.3-0.8c0.1,0,0.1,0,0.2-0.1
				l0.7,0.2c0.1,0,0.2,0,0.3-0.1c0.1-0.1,0.4-0.1,0.7-0.1c0.1,0,0.2-0.2,0.3-0.5C161,476.5,161.2,476.4,161.4,476.4z"/>
			<path d="M222.1,528.3l-2.3,2c-0.1-0.1-0.3-0.2-0.4-0.2c-0.3,0-0.7,0.3-1.2,0.9s-0.8,0.9-1,0.9l-0.5-0.1c-0.8,0.6-1.4,1-1.8,1.1
				s-0.8,0.3-1.3,0.5c-0.5,0.3-1,0.4-1.4,0.4c-0.4,0-0.7,0.2-1,0.4s-0.9,0.4-1.9,0.4l-0.8-0.1c-0.4,0.2-0.7,0.3-0.8,0.3
				c-0.3,0-0.5-0.1-0.8-0.4c-0.3-0.3-0.6-0.4-1-0.5c-0.3,0-0.7-0.3-1.1-0.7c-0.4-0.4-0.7-0.7-1-0.9c-0.3-0.2-0.6-0.4-0.8-0.7
				l-0.7-0.6c-0.6-0.4-1.1-1.1-1.6-2.1c-0.5-1-0.8-1.9-0.8-2.4v-0.2l0.1-0.9l-0.1-1.1c0.1-0.1,0.3-0.4,0.5-0.8v-1.6l1.2-3.9
				c0.1-0.2-0.1-0.4-0.4-0.6c-0.3,0.5-0.7,0.8-1,0.9s-0.5,0.3-0.7,0.7c-0.1,0.4-0.3,0.5-0.6,0.5l-0.6-0.2c-0.1,0.1-0.2,0.4-0.4,1
				c-0.2,0.6-0.6,0.9-1.2,0.9c-0.6,0-0.9-0.2-0.9-0.7l0.1-0.9l-0.3-1.2c0-0.3,0.3-0.8,0.8-1.5c0.5-0.8,1-1.2,1.4-1.3
				c0.4-0.1,0.8-0.4,1.1-0.9c0.3-0.5,1-1.1,2-1.8c0.6-0.1,1.1-0.6,1.5-1.3c0.5-0.4,1.1-0.7,1.8-0.9c0.7-0.2,1.3-0.6,1.7-1
				c0.4-0.4,1.5-1.1,3.3-2.1c1.8-0.9,3.2-1.4,4-1.4c0.3,0,0.6-0.1,1.1-0.2c0.5-0.1,0.9-0.3,1.3-0.4c0.4-0.1,0.8-0.3,1.2-0.5
				c0.4-0.2,0.8-0.4,1-0.4l1.4,0.5c1,0.3,1.7,0.5,1.9,0.6c0.1,0.1,0.4,0.2,1,0.4c0.6,0.2,1.2,0.5,1.9,0.9c0.6,0.4,1,1,1,2
				c-0.6,0.8-0.8,1.3-0.8,1.3c0,0.1,0.4,0.3,1.1,0.6c0.3,0.5,0.7,1.1,1.2,1.9l0.5,1.7l0.1,4l-0.1,0.4c-0.4,0.3-0.5,0.5-0.5,0.6
				l0.1,1l-0.4,1.4c-0.1,0.4-0.3,0.7-0.5,0.8c-0.2,0.1-0.4,0.3-0.4,0.5l-0.3,0.4c-0.1,0.1-0.2,0.4-0.4,0.9c-0.2,0.5-0.4,0.8-0.7,1.1
				c-0.3,0.3-0.4,0.6-0.5,0.9c-0.1,0.4-0.2,0.6-0.5,0.8c-0.3,0.2-0.4,0.3-0.6,0.5C222.5,528,222.3,528.2,222.1,528.3z M206.9,529.6
				l0.2,1.1l0.1,0.1h0.8l0.2,0.1c0.6,0.1,1.1,0.2,1.5,0.2c1,0,1.8-0.3,2.4-0.8c0.6-0.5,1.1-0.8,1.4-0.8s0.7-0.2,0.9-0.7
				c0.2-0.5,0.4-0.7,0.5-0.7h0.7l0.2-0.1c0-0.7,0.3-1.3,1-1.6c0.7-0.3,1.1-0.8,1.4-1.3s0.6-0.9,1-1.2c0.4-0.3,0.6-0.6,0.7-1.1
				l0.4-0.6c0.1-0.1,0.2-0.4,0.2-0.7l0.9-1.8c0.2-0.8,0.3-1.4,0.3-1.9c0-0.7-0.3-1.2-1-1.6c-0.7-0.4-1-1.2-1-2.3
				c0-0.7,0.4-1.4,1.1-2.1c0.8-0.6,1.1-1,1.1-1.1c0-0.2-0.1-0.3-0.3-0.3c-0.1,0-0.5,0.1-1.1,0.4c-0.2,0.5-1.4,1.1-3.5,1.8
				c-0.7-0.3-1.1-0.5-1.1-0.5c-0.2,0-0.4,0.2-0.6,0.6c-0.2,0.4-0.4,0.7-0.6,0.8h-0.6c-0.1,0-0.3,0.2-0.6,0.6
				c-0.4,0.4-0.8,0.6-1.4,0.6l-0.6,0.6c0,0.5-0.3,1.1-1,1.6l-0.5,0.6c-0.3,0.4-0.7,0.8-1.3,1.4l-0.9,2.2c-0.4,0.8-0.5,1.5-0.5,1.9
				c-0.1,0.2-0.3,0.4-0.7,0.6c-0.3,0.2-0.5,0.5-0.5,0.8c0,0.1,0.1,0.2,0.3,0.5c0.2,0.3,0.3,0.5,0.3,0.6l-0.2,0.6l-0.2,1.8
				L206.9,529.6z"/>
			<path d="M236.6,513.6l0.7,0.3c0.1-0.6,0.4-1,0.9-1.4h0.4c0.3,0,0.8-0.4,1.3-1.3l0.8-0.5c0.1,0.1,0.3,0.1,0.6,0.1
				c0.2,0,0.4-0.1,0.6-0.4c0.2-0.3,0.6-0.8,1.3-1.5h0.2c0.2,0,0.4-0.1,0.7-0.4c0.3-0.3,0.6-0.4,1.1-0.4l1.7-0.4
				c0.5-0.1,0.8-0.2,0.9-0.2c0.3-0.1,1,0.5,2.1,1.8c1.1,1.3,1.7,2.5,1.7,3.7c0,0.7-0.4,1.1-1.1,1.2l-0.2,0.2v1l-0.8,1.8
				c-0.2,0.5-0.5,0.8-0.8,0.9c-0.3,0.5-0.5,0.9-0.6,1.1l-0.7,0.1l-0.3,0.3v1.2c-0.3,0.4-0.7,1.2-1.3,2.6c-0.6,1.3-0.8,2.2-0.8,2.5
				c0,0.6,0.1,0.9,0.4,0.9c0.2,0,0.4-0.1,0.6-0.2c0.2-0.2,0.5-0.3,0.8-0.6c0.3-0.2,0.6-0.4,0.8-0.7c0.2-0.2,0.5-0.4,1-0.6
				c0.5-0.2,1-0.5,1.5-1c0.5-0.5,0.8-0.8,1-1c0.2-0.2,0.4-0.4,0.6-0.7c0.2-0.3,0.4-0.4,0.4-0.4c0.2,0,0.5-0.1,0.9-0.2
				c0.1-0.4,0.1-0.6,0.2-0.8l1.2-0.6l2.8-2.5l0.4-0.5c0.5-0.1,0.8-0.2,1-0.3c0.3-0.9,0.7-1.5,1.3-1.9c0-0.1,0.2-0.2,0.5-0.3
				c0.3-0.5,0.6-0.9,1-1.2c0.4-0.3,0.7-0.7,1-1.1l1.1-0.9c0.3-0.1,0.6-0.3,0.7-0.6c1.7-1.5,2.7-2.4,3.1-2.6c0.4-0.2,1.1-0.3,2-0.3
				s1.7,0.4,2.2,1c0.6,0.7,1.2,1.2,1.9,1.6c0.7,0.4,1,1,1,2.1c0,0.9-0.7,2.8-2.2,5.4c-0.9,2.8-1.4,4.5-1.5,5.2s-0.2,1-0.4,1.1
				s-0.4,0.2-0.4,0.3v0.2c0,0.8,0.1,1.2,0.4,1.2c0.2,0,0.5-0.2,0.8-0.5c0.3-0.3,1-0.7,2.1-1.1l0.4,0.1c0.9-1.4,1.6-2.2,1.9-2.3
				c0.3-0.1,0.6-0.4,1-0.9c0.3-0.5,0.7-0.7,1.2-0.8c0.5,0,0.8-0.1,0.9-0.2c0-0.8,0.7-1.7,1.9-2.6c1.2-1,2-1.5,2.2-1.5
				c0.3,0,0.6,0.2,0.8,0.7c0.2,0.5,0.4,0.8,0.6,1c0.2,0.2,0.3,0.3,0.3,0.5v0.9c0,0.4-0.2,0.7-0.6,0.8c-0.3,0.7-0.6,1.1-0.9,1.3
				l-0.9-0.1c-0.2,0.2-0.3,0.4-0.4,0.5c-0.1,0.2-0.2,0.2-0.2,0.2c-0.3,0.1-0.7,0.5-1.4,1.3c-0.7,0.8-1.3,1.5-1.8,2l-0.2,0.3
				c-0.3,0.2-0.5,0.3-0.7,0.4l-0.9,0.7c-0.3-0.2-0.5-0.3-0.6-0.3c-0.1,0-0.2,0.1-0.4,0.4c-0.2,0.3-0.6,0.6-1.3,1
				c-0.6,0.4-1.1,0.9-1.4,1.4l-0.8,0.8l-1,0.1c-0.1,0-0.3,0.1-0.5,0.4l-0.9,1.1c-0.4,0.6-1.1,0.8-2,0.8c-0.2,0-0.4-0.2-0.8-0.5
				s-0.6-0.6-0.9-0.9s-0.9-1-1.9-2.2c-1-1.2-1.4-1.9-1.4-1.9l0.3-1.7l-0.1-1.2c0-0.2,0.2-0.6,0.5-1c0.3-0.5,0.5-0.7,0.5-0.8
				l-0.1-1.9c0.1-0.1,0.1-0.2,0.2-0.3l0.7-1.1c-0.1-0.3-0.1-0.7-0.1-1.1l0.2-1.6c-0.6,0.3-1.1,0.8-1.5,1.6c-0.4,0.8-1,1.2-1.7,1.2
				c-0.6,1.1-1.1,1.6-1.4,1.6c-0.1,0.1-0.2,0.3-0.3,0.4l-0.7,0.4l-0.8-0.1l-0.3,1.2c-0.7,0.4-1.2,0.7-1.4,1c-0.2,0.3-0.5,0.6-1,1
				l-0.8,0.8h-0.8c-0.1,0.9-0.6,1.6-1.5,2.2l-0.4,0.5l-0.9-0.1c-0.3,1-0.7,1.7-1.2,1.9c-0.6,0-1.3,0.5-2.3,1.5c-1,1-1.6,1.5-2,1.5
				c-2.8,0-5.1-1.8-6.9-5.3c-0.1-0.1-0.2-0.4-0.5-0.7c-0.2-0.4-0.4-0.9-0.4-1.7c0-1.3,0.2-2.1,0.5-2.6c0.3-0.5,0.8-1.3,1.3-2.6
				c0.5-1.3,0.9-1.8,1.2-1.6c0.1-0.1,0.1-0.3,0.1-0.6c0.5-0.6,0.8-1.1,0.8-1.4c0-0.1-0.1-0.2-0.2-0.2c-0.1,0-0.3,0.1-0.6,0.3
				l-0.7,0.3c-0.3,0.1-0.5,0.2-0.6,0.4c-0.1,0.2-0.4,0.4-0.7,0.6c-0.3,0.2-0.6,0.3-0.8,0.5h-0.1c-0.2-0.2-0.3-0.3-0.4-0.3
				c-0.2,0.5-0.4,0.8-0.5,1l-0.6,0.1c-0.7,0.7-1.2,1.1-1.4,1.1c-0.1,0-0.4-0.1-0.9-0.3c-0.5-0.2-0.7-0.5-0.7-0.7l0.3-1.9v-0.9
				c0-0.1,0.1-0.2,0.4-0.4c0.1,0,0.3-0.3,0.8-1C235.5,514,236,513.6,236.6,513.6z"/>
			<path d="M283.9,528.7l-0.4-2.5c0-0.2,0.1-0.5,0.3-0.9c0.2,0,0.4-0.1,0.5-0.2l-0.3-0.9c0-1.1,0.3-2.1,1-3c0.6-0.8,1-1.4,1.1-1.7
				c0.1-0.3,0.5-1.2,1.4-2.9c0.9-1.6,1.5-2.6,1.9-3.1l0.3-0.6l0.4-0.1c0.7-1.2,1.8-2.3,3.2-3.3c0.5-0.7,1-1.3,1.7-1.8
				c0.7-0.5,1.1-0.8,1.3-1c0.2-0.2,0.6-0.3,1-0.4l0.2-0.1c0.9-0.9,1.8-1.4,2.4-1.4c0.2-0.2,0.7-0.5,1.4-0.8h0.5
				c0.2,0,0.4-0.1,0.6-0.2c0.2-0.1,0.4-0.2,0.6-0.2c0.1,0,0.5,0.1,1,0.4c0.5-0.5,0.9-0.8,1.3-0.8c0.7,0,1.4,0.3,2.1,0.8
				c0.7,0.5,1.1,1.2,1.3,1.9c0.2,0.7,0.4,1.2,0.5,1.3c0.1,0.1,0.3,0.3,0.4,0.5c0.3,0,0.6-0.6,1-1.8l0.6-0.8c0.9-1.1,1.5-2.5,1.8-4
				c0.1-0.1,0.2-0.3,0.3-0.8c0.1-0.5,0.5-1.3,1-2.4c0.9-1.4,1.6-2.8,2-4.2l0.6-0.9c0.4-0.3,0.6-0.5,0.6-0.9c0-0.3,0.1-0.6,0.3-0.9
				c0.2-0.3,0.3-0.6,0.6-1c0.2-0.4,0.4-0.6,0.5-0.8c0.1-0.1,0.3-0.6,0.6-1.3c0.3-0.8,0.6-1.2,1-1.3c0.4-0.1,0.8-0.3,1.1-0.5l0.1-0.3
				l-0.2-0.7c0-0.4,0.4-1.1,1.3-2.1c0.9-1,1.5-1.8,1.9-2.4c0.4-0.6,1-1.6,1.9-2.9c0.9-1.3,1.5-2.1,1.9-2.4l1.1-1.2
				c0.5-0.7,1.3-1.1,2.2-1.1c0.7,0,1.5,0.4,2.2,1.1c0.8,0.8,1.2,1.5,1.2,2.3c0,0.3-0.2,0.9-0.5,1.8l-0.1,0.6c0,0.5-0.2,1.1-0.5,1.9
				c-0.4,0.7-0.6,1.3-0.6,1.7l-2.7,6.7c-0.3,0.1-0.5,0.2-0.6,0.3c-0.8,1.9-1.5,2.9-2,3v1c0,0.4-0.2,0.6-0.7,0.8l-0.2,0.1
				c-0.3,1.2-0.7,2.1-1.1,2.7c-0.5,0.6-0.8,1.1-1,1.7c-0.2,0.6-0.5,0.9-1,1c-0.5,0.1-0.7,0.7-0.7,1.9c-0.1,0.7-0.5,1-1,1
				c-0.5,0-0.8,0.4-0.9,1.3c-0.1,0.8-0.8,1.3-1.9,1.4c-0.3,0.2-0.5,0.4-0.6,0.7l0.4,1.2c0,0.2-0.6,1-1.8,2.3l-0.4,1.3
				c-0.6,0.2-1.1,1.9-1.5,5l-0.6,3.4l0.1,1.3l-0.2,0.7l0.6,2l-0.1,1.1c0,0.5,0.2,0.8,0.6,0.8c0.2,0,0.6-0.3,1.3-0.9l0.7-0.3
				c2-1,3.3-2.1,3.8-3c0.1-0.1,0.4-0.3,0.7-0.4c0.3-0.1,0.6-0.3,0.8-0.5c0.2-0.2,0.3-0.4,0.4-0.5c2-1.3,3.3-2.4,3.9-3.4
				c0.6-1,1.2-1.6,1.8-1.8l0.4-0.4c0.4-0.3,0.7-0.5,1-0.5c0.6,0,0.8,0.2,0.8,0.5l-0.4,1.4c0.3,0.9,0.5,1.4,0.5,1.5
				c0,1.1-0.5,1.8-1.5,2.1c-0.4,0.4-0.8,0.9-1,1.5c-0.2,0.6-0.8,0.9-1.6,1c-0.6,0.8-1.1,1.3-1.5,1.5s-0.7,0.5-0.7,0.8v0.4
				c-0.3,0.4-0.5,0.7-0.7,0.8l-0.9-0.2c-0.1,0.4-0.4,0.9-0.9,1.6c-0.2-0.1-0.3-0.2-0.4-0.2c-0.5,0-0.8,0.3-1.1,0.8
				c-0.3,0.6-0.5,0.8-0.6,0.8h-1.1c-0.2,0.1-0.4,0.3-0.8,0.6c-0.4,0.3-1,0.5-1.8,0.5l-1.5,0.3c-1.4,0-2.8-0.5-4-1.4
				c-1.2-0.9-1.8-1.8-1.9-2.5c-0.1-0.8-0.4-1.7-0.8-2.8l-0.1-2c-0.4-2.1-0.8-3.1-1.2-3.1l-0.1,0.6l-0.4,0.2c-0.2,1-0.5,1.5-1,1.5
				c-0.2,0.1-0.4,0.3-0.6,0.5l-0.3,0.2c-0.1,0.1-0.3,0.3-0.6,0.8s-0.9,1.2-2,2.1c-0.5,1.2-0.8,1.8-1,1.8l-0.6-0.4h-0.1
				c-0.3,0-0.5,0.4-0.6,1.1c-0.2,0.8-0.5,1.1-1,1.1c-0.1,0-0.3,0.2-0.4,0.7s-0.4,0.7-0.9,0.8c-0.5,0.1-0.9,0.6-1.2,1.3
				s-0.6,1.2-0.7,1.2c-0.1,0-0.2,0-0.3-0.1l-0.8,0.2c-0.2,0.2-0.4,0.6-0.7,1.1c-0.3,0.1-0.6,0.2-0.8,0.4c-1,1-2.3,1.5-4,1.5
				c-1.2,0-2.1-0.3-2.8-0.8c-0.7-0.5-1.1-0.9-1.2-1.3c-0.1-0.4-0.4-0.8-0.7-1.3C284.2,530.1,284,529.5,283.9,528.7z M303.4,517.6
				l0.3-0.6c0.6-0.2,0.9-0.7,1.1-1.5c0.3-0.2,0.9-1,2-2.5c1.1-1.5,1.6-2.3,1.6-2.5c-0.3-0.3-0.7-0.5-1.1-0.5c-0.1,0-0.3,0.1-0.6,0.2
				c-0.3,0.1-0.7,0.2-1,0.3c-0.3,0.1-0.7,0.2-1.1,0.4l-1.2-0.2c-0.4,0-1.2,0.5-2.4,1.4l-1.1-0.2c-0.2,0-0.5,0.4-1,1.3l-2.5,2h-0.3
				c-0.5,0-0.8,0.4-0.9,1.2c-0.6,0.7-1.1,1.2-1.6,1.5c-0.5,0.3-0.8,0.7-1,1.2v0.6c-0.9,1-1.4,1.8-1.4,2.3c-0.7,0.7-1.1,1.4-1.3,2.1
				c-0.2,0.7-0.5,1.4-0.8,1.9c0.1,0.5,0.2,1,0.3,1.7c0.1,0.7,0.4,1,1,1c0.9,0,2-0.6,3.1-1.7c0.1-0.1,0.3-0.2,0.8-0.5s1.2-0.9,2-1.7
				c0.9-0.9,1.3-1.3,1.4-1.3c0.3-0.3,0.5-0.5,0.6-0.5l0.4-0.4c0-0.1,0.1-0.3,0.4-0.4c0.3-0.2,0.6-0.5,1.1-1c0.5-0.5,0.8-0.8,1.1-0.9
				s0.4-0.2,0.5-0.4c0.1-0.2,0.3-0.3,0.5-0.5c0.2-0.2,0.3-0.3,0.3-0.5l0.1-0.6L303.4,517.6z M320.3,497.8l-0.5,1.4
				c0.4-0.1,0.8-0.5,1.1-1.3c1-1.4,1.6-2.3,2-2.6c0.4,0,0.7-0.3,1-0.8s0.6-1.1,1.1-1.6c0-0.2,0.2-0.7,0.7-1.3c0.5-0.7,0.8-1.1,1-1.4
				c0.1-0.3,0.4-0.6,0.9-1.1c0.5-0.5,0.9-1.2,1.3-2.3c0.4-1.1,0.8-1.8,1-2c0.3-0.2,0.4-0.7,0.4-1.4c0-0.9-0.1-1.4-0.2-1.4
				c-0.3,0-0.5,0.2-0.7,0.6c-0.1,0.4-0.5,0.9-1,1.4l-1.7,2.8c-0.7,1.1-1.1,2-1.3,2.6c-0.2,0.7-0.5,1-0.7,1.1c-0.3,0.1-0.6,0.4-1,1
				l-0.7,0.7c-0.2,0.4-0.3,0.9-0.4,1.4l-0.4,0.4v0.9c0,0.4-0.2,0.8-0.7,1.1s-0.7,0.6-0.7,0.7L320.3,497.8z"/>
			<path d="M330.9,513.6l0.7,0.3c0.1-0.6,0.4-1,0.9-1.4h0.4c0.3,0,0.8-0.4,1.3-1.3l0.8-0.5c0.1,0.1,0.3,0.1,0.6,0.1
				c0.2,0,0.4-0.1,0.6-0.4c0.2-0.3,0.6-0.8,1.4-1.5h0.2c0.2,0,0.4-0.1,0.7-0.4c0.3-0.3,0.6-0.4,1.1-0.4l1.7-0.4
				c0.5-0.1,0.8-0.2,0.9-0.2c0.3-0.1,1,0.5,2.1,1.8c1.1,1.3,1.7,2.5,1.7,3.7c0,0.7-0.4,1.1-1.1,1.2l-0.2,0.2v1l-0.8,1.8
				c-0.2,0.5-0.5,0.8-0.8,0.9c-0.3,0.5-0.5,0.9-0.6,1.1l-0.7,0.1l-0.3,0.3v1.2c-0.3,0.4-0.7,1.2-1.3,2.6c-0.6,1.3-0.8,2.2-0.8,2.5
				c0,0.6,0.1,0.9,0.4,0.9c0.2,0,0.4-0.1,0.6-0.2c0.2-0.2,0.5-0.3,0.8-0.6c0.3-0.2,0.6-0.4,0.8-0.7c0.2-0.2,0.5-0.4,1-0.6
				c0.5-0.2,1-0.5,1.5-1c0.5-0.5,0.8-0.8,1-1c0.2-0.2,0.4-0.4,0.6-0.7c0.2-0.3,0.4-0.4,0.4-0.4c0.2,0,0.5-0.1,0.9-0.2
				c0.1-0.4,0.1-0.6,0.2-0.8l1.2-0.6l2.8-2.5l0.4-0.5c0.5-0.1,0.8-0.2,1-0.3c0.3-0.9,0.7-1.5,1.3-1.9c0-0.1,0.2-0.2,0.5-0.3
				c0.3-0.5,0.6-0.9,1-1.2c0.4-0.3,0.7-0.7,1-1.1l1.1-0.9c0.3-0.1,0.6-0.3,0.7-0.6c1.7-1.5,2.7-2.4,3.1-2.6c0.4-0.2,1.1-0.3,2-0.3
				c0.9,0,1.7,0.4,2.2,1c0.6,0.7,1.2,1.2,1.9,1.6c0.7,0.4,1,1,1,2.1c0,0.9-0.7,2.8-2.2,5.4c-0.9,2.8-1.4,4.5-1.5,5.2
				c0,0.6-0.2,1-0.4,1.1c-0.3,0.1-0.4,0.2-0.4,0.3v0.2c0,0.8,0.1,1.2,0.4,1.2c0.2,0,0.5-0.2,0.8-0.5c0.3-0.3,1-0.7,2.1-1.1l0.4,0.1
				c0.9-1.4,1.6-2.2,1.9-2.3c0.3-0.1,0.6-0.4,1-0.9c0.3-0.5,0.7-0.7,1.2-0.8c0.5,0,0.8-0.1,0.9-0.2c0-0.8,0.7-1.7,1.9-2.6
				s2-1.5,2.2-1.5c0.3,0,0.6,0.2,0.8,0.7s0.4,0.8,0.6,1c0.2,0.2,0.3,0.3,0.3,0.5v0.9c0,0.4-0.2,0.7-0.6,0.8
				c-0.3,0.7-0.6,1.1-0.9,1.3l-0.9-0.1c-0.2,0.2-0.3,0.4-0.4,0.5c-0.1,0.2-0.2,0.2-0.2,0.2c-0.3,0.1-0.7,0.5-1.4,1.3
				c-0.7,0.8-1.3,1.5-1.8,2l-0.2,0.3c-0.3,0.2-0.5,0.3-0.7,0.4l-0.9,0.7c-0.3-0.2-0.5-0.3-0.6-0.3c-0.1,0-0.2,0.1-0.4,0.4
				c-0.2,0.3-0.6,0.6-1.3,1c-0.6,0.4-1.1,0.9-1.4,1.4l-0.8,0.8l-1,0.1c-0.1,0-0.3,0.1-0.5,0.4l-0.9,1.1c-0.4,0.6-1.1,0.8-2,0.8
				c-0.2,0-0.4-0.2-0.8-0.5c-0.3-0.3-0.6-0.6-0.9-0.9c-0.3-0.2-0.9-1-1.9-2.2s-1.4-1.9-1.4-1.9l0.3-1.7l-0.1-1.2
				c0-0.2,0.2-0.6,0.5-1c0.3-0.5,0.5-0.7,0.5-0.8l-0.1-1.9c0.1-0.1,0.1-0.2,0.2-0.3l0.7-1.1c-0.1-0.3-0.1-0.7-0.1-1.1l0.2-1.6
				c-0.6,0.3-1.1,0.8-1.5,1.6c-0.4,0.8-1,1.2-1.7,1.2c-0.6,1.1-1.1,1.6-1.4,1.6c-0.1,0.1-0.2,0.3-0.3,0.4l-0.7,0.4l-0.8-0.1
				l-0.3,1.2c-0.7,0.4-1.2,0.7-1.4,1c-0.2,0.3-0.5,0.6-1,1l-0.8,0.8H348c-0.1,0.9-0.6,1.6-1.5,2.2l-0.4,0.5l-0.9-0.1
				c-0.3,1-0.7,1.7-1.2,1.9c-0.6,0-1.3,0.5-2.3,1.5c-1,1-1.6,1.5-2,1.5c-2.8,0-5.1-1.8-6.9-5.3c-0.1-0.1-0.2-0.4-0.5-0.7
				c-0.2-0.4-0.4-0.9-0.4-1.7c0-1.3,0.2-2.1,0.5-2.6c0.3-0.5,0.8-1.3,1.3-2.6c0.5-1.3,0.9-1.8,1.2-1.6c0.1-0.1,0.1-0.3,0.1-0.6
				c0.5-0.6,0.8-1.1,0.8-1.4c0-0.1-0.1-0.2-0.2-0.2c-0.1,0-0.3,0.1-0.6,0.3l-0.7,0.3c-0.3,0.1-0.5,0.2-0.6,0.4s-0.4,0.4-0.7,0.6
				c-0.3,0.2-0.6,0.3-0.8,0.5h-0.1c-0.2-0.2-0.3-0.3-0.4-0.3c-0.2,0.5-0.4,0.8-0.5,1l-0.6,0.1c-0.7,0.7-1.2,1.1-1.4,1.1
				c-0.1,0-0.4-0.1-0.9-0.3c-0.5-0.2-0.7-0.5-0.7-0.7l0.3-1.9v-0.9c0-0.1,0.1-0.2,0.4-0.4c0.1,0,0.3-0.3,0.8-1
				C329.7,514,330.2,513.6,330.9,513.6z"/>
			<path d="M419.1,523.8h0.2l0.5,0.2c0.1,0,0.1,0,0.2-0.1c0-0.6,0.3-1,0.8-1.4c0.2-0.6,0.5-1.1,1.1-1.4c0.6-0.3,1.5-0.9,2.7-1.6
				l1.2-1.1l0.6-0.3l0.4-0.5c0.4-0.4,0.7-0.6,1-0.6c0.5,0,0.7,0.2,0.7,0.5l-0.4,1l0.2,1.6c0,0.6-0.2,1.1-0.6,1.6
				c-0.4,0.5-1,1.1-1.9,2l-2.5,2.6L422,527c-0.3,0.2-0.6,0.4-0.9,0.7l-1.9,1.6c0,0.5-0.1,0.8-0.4,1h-0.8l-0.4,0.2
				c-0.2,0.6-0.9,1.2-2,1.8l-0.7,0.5c-0.2,0.2-0.4,0.3-0.6,0.3l-1.4-0.2l-0.9,0.2c-0.3,0-0.6-0.1-1.1-0.4c-0.4-0.3-0.9-0.5-1.3-0.6
				s-1-0.7-1.7-1.8c-0.7-1.1-1.1-1.7-1.1-2.1c0-0.1-0.1-0.3-0.2-0.7c-0.1-0.3-0.2-0.5-0.2-0.6c0-0.1,0.1-0.4,0.4-1v-0.1
				c0-0.1-0.1-0.3-0.3-0.7c-0.2-0.4-0.3-0.8-0.3-1.3c0-0.3-0.1-0.7-0.3-1.1c0.3-0.3,0.4-0.5,0.4-0.6c0-0.1,0-0.3-0.1-0.6
				s-0.1-0.4-0.1-0.6l0.3-2.4l-0.2-1.2l0.1-1.2c0-0.7-0.3-1-0.9-1c-0.3,0-0.6,0.2-1,0.5l-0.3,0.1c-0.9,0.4-1.5,0.8-1.8,1
				c-0.4,0.3-0.7,0.4-1.1,0.4c-0.2,0.2-0.6,0.4-1.1,0.5l-0.4,0.3c-0.1,0.1-0.4,0.3-0.8,0.6c0,0.1-0.6,0.6-1.8,1.6
				c-1.2,1-2.3,1.9-3.3,2.8c-1,0.9-1.7,1.4-2.1,1.4c-0.4,0.1-0.7,0.5-0.7,1.2c0,0.1-0.3,0.4-0.9,0.8c-0.1,0-0.4,0.4-1,1.1
				c-0.5-0.4-0.8-0.6-0.9-0.6c-0.4,0-0.7,0.5-0.9,1.6c-0.2,0.4-0.7,0.7-1.6,0.8c-0.1,0-0.2,0.3-0.3,0.7l-0.2,0.2h-0.5
				c-0.1,0-0.3,0.2-0.7,0.6c-0.4,0.4-0.7,0.6-1,0.7c-0.4,0.9-0.8,1.3-1.1,1.3c-0.1,0-0.3-0.1-0.6-0.2c-0.2-0.1-0.5-0.2-0.9-0.3
				c-0.4-0.1-0.8-0.5-1.2-1.2c-0.4-0.7-0.7-1.3-0.7-1.8c0-3.6,0.7-5.6,2.1-5.9l0.1-0.2v-0.4c0-0.4,0.2-0.7,0.6-0.9
				c0.4-0.2,0.8-0.5,1.1-1.1s0.7-0.8,0.8-0.9h0.6c0.1,0,0.2-0.3,0.2-1c0-0.2,0.1-0.4,0.2-0.5c0.2-0.2,0.3-0.4,0.3-0.7
				c0-0.3,0.3-0.8,0.7-1.5c0.4-0.7,0.7-1.1,0.7-1.2l-0.1-0.2c-0.8,0.7-1.4,1.2-1.8,1.2c-0.4,0.1-0.8,0.5-1.5,1.4l-0.8-0.1
				c-1.4,1-2.2,1.6-2.5,1.7c-0.3,0.1-0.7,0.5-1.1,1.1c0,0.2-0.1,0.3-0.3,0.4c-0.2,0.1-0.7,0.3-1.3,0.8h-0.3c-0.8,0-1.2-0.6-1.2-1.8
				l1-2.8c0.3-0.9,1-1.6,2.1-2.2c1.1-0.6,2-1.2,2.8-1.7c0.7-0.6,1.5-0.8,2.2-0.9l0.3-0.5c1.1-0.4,1.9-1.1,2.2-2
				c0.4-0.9,0.9-1.4,1.6-1.4c1.8,0,3.2,0.7,4.1,2c0.9,1.3,1.4,2.4,1.4,3.1l0.1,1.3c0,0.5-0.1,1.1-0.3,1.9c-0.4,0.6-0.6,1-0.6,1.3
				c0,0.3,0.2,0.4,0.5,0.4c0.2,0,0.5-0.1,0.8-0.4c0.3-0.3,0.7-0.5,1.1-0.8c0.4-0.2,0.6-0.4,0.7-0.6c0.3-0.8,0.9-1.3,1.7-1.6
				c0.8-0.3,1.3-0.5,1.5-0.7l0.5-0.4l0.4-0.7c0.9-0.4,1.5-0.7,1.8-1.1c0.3-0.3,0.7-0.5,1.2-0.6s1-0.4,1.7-0.9l0.7-0.2l0.7-0.4
				c0.1-0.1,0.3-0.1,0.6-0.2s0.8-0.3,1.4-0.5c0.6-0.2,1.1-0.4,1.3-0.4c1.7,0,3,0.7,3.9,2c1,1.3,1.4,2.4,1.4,3.2l-0.1,0.9l0.2,1.3
				v0.2l-0.4,2.7l0.1,0.9c0,1.5-0.3,2.6-1,3.2c-0.2,0.1-0.2,0.2-0.2,0.5v0.4l1,2.1c0.3,0.7,0.5,1.1,0.7,1.1l1.6-0.4
				c0.5-0.1,0.8-0.5,1.1-1c0.3-0.1,0.7-0.5,1.4-1.2C418.3,524.1,418.6,523.8,419.1,523.8z"/>
		</g>
	</g>
</g>
</svg>
