<svg id="图层_1" data-name="图层 1" xmlns="http://www.w3.org/2000/svg" viewBox="0 0 566.93 566.93"><defs><style>.cls-1{fill:#231815;}</style></defs><path class="cls-1" d="M476.76,299c19.58-52.1,12.11-142.93-49.85-202.61S259.75,16.18,178.71,64C108.43,105.56,62.45,189.09,81.46,282c17,82.74,78.71,136,132.55,151.7-.67-1.88-2.45-2.11-3.89-2.82-14.75-7.32-30.09-13.64-43.32-23.64-27.9-21.1-50.56-46.65-66.2-78.23a191.46,191.46,0,0,1-20-75.72,199.21,199.21,0,0,1,11.27-77A194.75,194.75,0,0,1,131,110c22.37-25,49.58-43.13,81.86-53.32a179.75,179.75,0,0,1,70.5-8.11c38.27,3.37,71.21,18.95,99,45.17,33.12,31.26,53.08,70.17,63.07,114.14q17,74.65-6.41,148c-1.53,4.81-3.41,9.72-3.77,16.05,8.59-7.41,12.77-16.14,16.33-25.06,9.17-23,13.19-47.2,13.23-71.81.09-47.87-10.84-93.07-35.2-134.62a201,201,0,0,0-64-67.62A195.65,195.65,0,0,0,292.71,43.7c-2.5-.45-5.14-.74-7.61-2.28,3.35-1.62,3.35-1.6,5.78-1.5,17.82.67,34.76,5,51.43,11.26,34.66,13,62.33,34.69,83.43,64.94a252.79,252.79,0,0,1,38.89,85.94c6.28,26,9,52.49,10.84,79.11C475.85,286.71,476.27,292.26,476.76,299Z"/><path class="cls-1" d="M366.14,132.7c.2,5.73,2.94,10.51,5.44,15.29,12.88,24.55,18.46,50.91,19.34,78.34a227.76,227.76,0,0,1-13.34,83.82,282.63,282.63,0,0,1-28.35,58.2c-14.18,22.25-30.35,42.94-49.51,61.18-.79.75-1.94,1.43-1.13,3.43A65.15,65.15,0,0,0,318.68,425c20.5-12.16,35-30.13,47.1-50.1,15.35-25.28,25.06-52.83,31.3-81.66a217.69,217.69,0,0,0,1.45-86.3,186.16,186.16,0,0,0-18-52.17A118.11,118.11,0,0,0,366.14,132.7Z"/><path class="cls-1" d="M336.59,431.52l1,1.18c3.94-2,8.16-3.59,11.76-6.07,21.49-14.79,36-35.39,46.73-58.62a287.1,287.1,0,0,0,23.07-76.71c7.87-50.39,1.57-98.19-23.9-142.85-8.93-15.66-18.89-30.63-32.4-42.86-1.46-1.32-2.77-3.18-5.81-2.78l2.3,3.31c7.82,11.18,17.39,21.14,24.19,33,16.31,28.43,24.16,59.43,25.87,92,1.79,34.26-2.6,67.67-14.54,100.09-10.43,28.31-23.65,55-42,79C347.39,417.26,342,424.4,336.59,431.52Z"/><path class="cls-1" d="M386.22,410.26c1.53.79,2.27.05,3-.6,8.25-7.55,16.27-15.37,22.5-24.69,14.64-21.9,23.81-46.09,28.47-71.89a252.13,252.13,0,0,0-3.84-109.42c-8.57-33-22.81-63.2-45.44-89-12.33-14.05-25.76-27-41.86-36.83-2.55-1.56-5-3.42-9.31-2.85,9.53,6.3,17.28,13.34,25.08,20.3,13.49,12,25.39,25.53,34.75,41C412.78,158.17,421.3,181.85,426,207a280.6,280.6,0,0,1,1.19,95.43c-4.81,30.64-15.57,59.42-29.74,86.94C393.81,396.36,390,403.26,386.22,410.26Z"/><path class="cls-1" d="M365,162.71c.47,2.59.85,5.2,1.43,7.77.63,2.75,1.55,5.45,2.18,8.2,8.45,36.69,5.36,72.73-6.14,108.3-10.52,32.56-27.26,61.66-48.56,88.33C301,391.51,287,406.64,270.58,419.36c-1.86,1.44-5.36,3-4.24,5.35,1,2.19,4.57.79,7,.45,18.49-2.62,31.74-14,43.63-27.07,21.68-23.78,36.84-51.73,49.18-81.15,15.22-36.26,20.74-73.88,13.17-112.92C376.49,189.61,372.16,175.73,365,162.71Z"/><path class="cls-1" d="M357.57,192.62c-.07.8-.19,1.6-.19,2.4,0,9,.68,18-.19,26.95-3.23,33.27-13.93,64.13-30.29,93.27A273.94,273.94,0,0,1,279,377.55c-10.42,10.17-22.41,18.35-33,28.22-1,1-3,1.58-2.33,3.42.57,1.64,2.4,1.59,3.85,1.81a28.71,28.71,0,0,0,18.31-3.32c13.29-7.14,23.86-17.45,33.51-28.8A333.08,333.08,0,0,0,336,326.67c9-15.88,16.85-32.08,21.26-49.86C364.24,248.78,365.93,220.72,357.57,192.62Z"/><path class="cls-1" d="M345.2,217.68c-2.56,1-2.28,2.95-2.71,4.45-6.32,22.42-12.09,45-23.11,65.79a268.47,268.47,0,0,1-64.16,79.65c-7.11,6-14.62,11.58-21.86,17.44-1.61,1.31-4.46,2.71-3.71,4.8.9,2.46,4.06,2.41,6.54,2.3A32.5,32.5,0,0,0,253,386.4c22.37-14.77,38.88-35.36,54.92-56.21,9.53-12.37,16.89-26.27,23.25-40.64a170.1,170.1,0,0,0,14.3-56.36C345.85,228.15,345.32,223,345.2,217.68Z"/><path class="cls-1" d="M327.61,232.81a2.69,2.69,0,0,0-2.56,2.17,350.69,350.69,0,0,1-22.61,45.43c-13.55,22.85-30.49,42.74-49.84,60.75a275,275,0,0,1-30.48,25c-1.05.73-2.63,1.34-2.29,2.93.4,1.84,2.27,1.82,3.68,1.94a23.39,23.39,0,0,0,11.71-1.83,88.56,88.56,0,0,0,25.62-17.11c27.39-26.63,50.12-56.44,61.79-93.5A111.07,111.07,0,0,0,327.61,232.81Z"/><path class="cls-1" d="M309.19,242.9c-2.45.57-2.85,1.94-3.55,3-9.36,14.34-18.27,29-28.81,42.54-12.9,16.61-26.44,32.54-44.22,44.32-5.12,3.39-9.74,7.53-14.51,11.43-1.21,1-3.07,2.1-2.18,4,.74,1.56,2.6,1.15,4.08,1.06a32.39,32.39,0,0,0,19.61-7.78c25.24-21.84,47.33-46.29,62.31-76.49A76.66,76.66,0,0,0,309.19,242.9Z"/><path class="cls-1" d="M288.35,255.85l-1.18-.77c-1.27,1.27-2.82,2.36-3.76,3.83-7.18,11.41-17.14,20.36-26.34,30-11.89,12.39-24.28,24.25-38.67,33.81-1.56,1-4.13,2.2-3.25,4.44,1,2.53,3.72,1.29,5.78,1.15a11.22,11.22,0,0,0,1.93-.51c7.83-2.07,14-6.89,19.76-12.23,12.62-11.7,24.13-24.44,33.47-38.93C280.42,269.87,285.1,263.23,288.35,255.85Z"/><path class="cls-1" d="M222.37,307.75c18.81-10.25,32.41-25.82,44.86-42.55L266.09,264Z"/><path class="cls-1" d="M248.34,268.32c-8.83,5.42-16.31,12.18-21.63,21.07C234.88,283.32,242.82,277,248.34,268.32Z"/><path class="cls-1" d="M161.4,476.41l.39-.48a1.31,1.31,0,0,1,1-.57A3.57,3.57,0,0,0,164,475l7.18-2a17,17,0,0,1,2.53-.39l1.57-.49a4.3,4.3,0,0,1,1.8-.3l1.62-.34c.13,0,.24.12.34.37s.18.36.24.36a8.58,8.58,0,0,1,2.93-1.51h.1l1.17.29a.92.92,0,0,0,.64-.39l.19-.19a10.85,10.85,0,0,0,1.17.49,5.47,5.47,0,0,0,1.66-.3,6,6,0,0,1,1.76-.29l1.51.1,3.37-.2a1,1,0,0,1,.64.3l1-.2a10.28,10.28,0,0,1,2.8.39,20,20,0,0,0,3.35.59,3.9,3.9,0,0,1,2.83,1.32l.83.29h.59a1.34,1.34,0,0,1,1.51,1,3.5,3.5,0,0,0,1.17,1.18l.64,1a1.74,1.74,0,0,0-.1.59c0,.19.36.42,1.07.68l.2.1a2.93,2.93,0,0,0,.93,1.68,5.36,5.36,0,0,1,.88,3.54v1.17l.19,2.54a16.6,16.6,0,0,1-1.54,6.25,13.81,13.81,0,0,1-3.24,5.13q-.39,1.32-.93,1.32c-1.14,1-1.87,1.56-2.2,1.56a.7.7,0,0,1-.29-.1,5.48,5.48,0,0,1-2.13,2.05,14.37,14.37,0,0,1-1.92,1c-.3.1-1,.37-2.25.83l-1.17-.29a2.83,2.83,0,0,1-1,.73L193,506a21.51,21.51,0,0,1-4.3.88l-1.22-.39c-.19,0-.49.25-.88.73l-.92.2a4,4,0,0,0-1.91-.44,2.27,2.27,0,0,1-1.12.44l-2.15.29c-.26,0-.42-.24-.49-.73l-.44.15-.19.68a1,1,0,0,1-.49.1l-2.59-.3-1.22.3-2-.39-1,.09-.83-.39-.78.1-.78-.19-.93.19-.19-.1a1.79,1.79,0,0,1-.49.64,4.57,4.57,0,0,0-.78,1,4,4,0,0,0-1.42,2.25,1.76,1.76,0,0,1-1.7,1.47,5.53,5.53,0,0,1-.3.48,2.78,2.78,0,0,1,.3.83v.2c0,.78-.64,1.58-1.91,2.39a8.65,8.65,0,0,1-.71,2.54,7.72,7.72,0,0,0-.56,1.29,1.44,1.44,0,0,1-.83.86l-.19.29v1.42a2.38,2.38,0,0,1-.3.61l-.83,1.49-.29.49-.39,1.61a2.19,2.19,0,0,0-1,1.9l.1,2.78a2.12,2.12,0,0,1-.95,1.52,3,3,0,0,1-1.89.78q-2.39,0-3.27-2.88l-.29-.39a3,3,0,0,1-1-2.49c0-1.27.67-3.18,2-5.71l3.23-5.82a9.49,9.49,0,0,1,1.27-.87l.53.19a.39.39,0,0,0,.2-.39,13.77,13.77,0,0,0-.54-1.42v-.19a.46.46,0,0,1,.34-.49l.4-.44-.1-1a6.3,6.3,0,0,0,.93-1.7l.48-1.13q.49-1.12.78-1.17a3.46,3.46,0,0,1,1.18-2.88l.39-.83a.71.71,0,0,1,.63-.34c.33,0,.49-.08.49-.15a1.28,1.28,0,0,0-.14-.49,1.08,1.08,0,0,1-.15-.48,2.43,2.43,0,0,1,.56-1.27c.37-.52.64-.79.81-.79l.73.44v-.29c-.33-.29-.49-.54-.49-.73a2.15,2.15,0,0,1,.44-1.05,5.6,5.6,0,0,0,.54-.95l.39-.49a5,5,0,0,0,.49-1.37c.26-.91.63-1.35,1.12-1.32v-.49a7.2,7.2,0,0,1,1.12-2.34l2.59-4.59a8,8,0,0,1,.78-1.71l-.1-1.17a6.12,6.12,0,0,1,.91-2.44c.6-1.11,1.1-1.66,1.49-1.66a.63.63,0,0,1,.41.1.4.4,0,0,0,.22.09l.78-.09,1.57,1.41a2.71,2.71,0,0,1,.73,1.91l.19.29a8.14,8.14,0,0,1,1.22,3.17,5.51,5.51,0,0,1-.22,1.79,3.69,3.69,0,0,1-1.48,1.44,6.89,6.89,0,0,0-1.52,2.46,5.79,5.79,0,0,1-1,2,8.53,8.53,0,0,0-1.24,2.73,4.7,4.7,0,0,1-1.86,2.69,16.7,16.7,0,0,1-.39,2.25v.09q0,.3.39.3l1.61-.2a2.15,2.15,0,0,1,.71.15,2.6,2.6,0,0,0,.81.14,1.91,1.91,0,0,0,1-.39h.29a5.66,5.66,0,0,1,1.23.49l.19-.1c.2-.32.39-.48.59-.48l1.9.19.93-.1a4.37,4.37,0,0,1,2.12-.49,6.27,6.27,0,0,0,2-.29,3.43,3.43,0,0,1,1-.29,3.64,3.64,0,0,0,1.14-.39,2.9,2.9,0,0,1,1.2-.34,7.69,7.69,0,0,0,3.13-1,5.91,5.91,0,0,0,.78.2,1.8,1.8,0,0,0,1.51-.79,2,2,0,0,1,1.32-.87l3-1.32a7.88,7.88,0,0,0,1.71-1.61l.88-.59.58-.83c0-.06.31-.26.93-.59a.58.58,0,0,1-.29-.29l1.07-1.22c-.06-.32-.1-.52-.1-.59v-.19a3.73,3.73,0,0,1,1-1.07c.35-.23.52-.38.52-.44l-.49-.59c.45-.46.68-.75.68-.88l-.19-1.42.19-2.49a7.76,7.76,0,0,0-.24-2.46,4.87,4.87,0,0,1-.34-1.15,8.27,8.27,0,0,0-2.59-3,.37.37,0,0,1-.15-.34l-.1-.49v-.19l-1.56.19c-.06,0-.17-.16-.32-.49a.72.72,0,0,0-.7-.48l-.69.29h-.09a5.12,5.12,0,0,1-1.71-.93,5.09,5.09,0,0,0-1.23-.1l-.68-.29a.92.92,0,0,0-.49-.19h-.29l-1.12.19-2.5-.19-1.51-.3a2.94,2.94,0,0,1-1.07.59,3.87,3.87,0,0,1-.93-.29h-.1l-1.46.19c-.46.07-.83.13-1.13.2h-.29a8.09,8.09,0,0,1-2.49-.3h-.29a1.15,1.15,0,0,0-.88.37,1,1,0,0,1-.64.37c-.13,0-.29-.22-.49-.64a7,7,0,0,1-.92.64l-.88-.35c-.14.26-1.13.54-3,.83l-2.35.49-.39-.1a14,14,0,0,1-1.85.54,5.67,5.67,0,0,0-1.3.42,4,4,0,0,1-1.19.36,13.83,13.83,0,0,0-1.86.49l-.78-.19a26.74,26.74,0,0,1-2.69,1.27,7.8,7.8,0,0,0-2.2,1.17,1.24,1.24,0,0,1-.83.44c-.06,0-.26,0-.58-.1h-.1c-.29,0-.77.33-1.44,1a9.77,9.77,0,0,1-1.73,1.44,3.82,3.82,0,0,0-1.3,1.39,3.73,3.73,0,0,1-2.56,1.39,1.29,1.29,0,0,0-.2.3v.78a3.88,3.88,0,0,0-1.42,1.71l-.29.49-.1.92c0,1-.13,1.5-.39,1.57a2.1,2.1,0,0,0-.8.41,1.37,1.37,0,0,1-.81.32q-.83,0-1.56-1.47a6.91,6.91,0,0,1-.73-1.75,4.87,4.87,0,0,1,1.9-4.25l3.61-2.64a5.61,5.61,0,0,1,3.08-1.32,2.35,2.35,0,0,0,.83-.93,3,3,0,0,1,2-1.07l.78.29q.1,0,.3-.39a1.48,1.48,0,0,1,.61-.63,2.54,2.54,0,0,0,.71-.64l1.26-.83a.3.3,0,0,0,.2-.09l.73.19a.73.73,0,0,0,.3-.1,1.77,1.77,0,0,1,.68-.09c.13,0,.23-.17.29-.49A.81.81,0,0,1,161.4,476.41Z"/><path class="cls-1" d="M222.06,528.32l-2.29,2a.59.59,0,0,0-.4-.2c-.32,0-.72.3-1.19.88s-.81.88-1,.88l-.49-.1a6.65,6.65,0,0,1-1.76,1.08,7.26,7.26,0,0,0-1.3.54,3.82,3.82,0,0,1-1.36.44,1.62,1.62,0,0,0-1,.41,3.14,3.14,0,0,1-1.9.37l-.78-.1a2.94,2.94,0,0,1-.83.29,1.32,1.32,0,0,1-.84-.41,1.62,1.62,0,0,0-.95-.47,1.68,1.68,0,0,1-1.05-.68,3.63,3.63,0,0,0-1-.88,2.07,2.07,0,0,1-.76-.68l-.68-.59a5.68,5.68,0,0,1-1.61-2.15,5.89,5.89,0,0,1-.79-2.44v-.19l.1-.93-.1-1.08a2.94,2.94,0,0,0,.49-.83v-1.56l1.18-3.9c.06-.17-.07-.38-.4-.64a2,2,0,0,1-1,.88,1,1,0,0,0-.66.68c-.11.36-.3.54-.56.54l-.59-.2a4.76,4.76,0,0,0-.45,1,1.21,1.21,0,0,1-1.18.9c-.59,0-.88-.23-.88-.68l.1-.88-.3-1.22a3.86,3.86,0,0,1,.78-1.54,2.89,2.89,0,0,1,1.45-1.32,1.87,1.87,0,0,0,1.12-.93,7.44,7.44,0,0,1,2-1.83,2.44,2.44,0,0,0,1.52-1.27,5.48,5.48,0,0,1,1.78-.88,3.42,3.42,0,0,0,1.66-1,13.51,13.51,0,0,1,3.33-2.05,10.52,10.52,0,0,1,4-1.39,3.6,3.6,0,0,0,1.07-.22l1.27-.39a5.37,5.37,0,0,0,1.23-.54,2.23,2.23,0,0,1,1-.36l1.42.48a12.33,12.33,0,0,1,1.91.64,5.37,5.37,0,0,0,1,.41,11.81,11.81,0,0,1,1.86.86,2.08,2.08,0,0,1,1,2,8.74,8.74,0,0,0-.84,1.32c0,.13.38.32,1.13.58.26.49.65,1.13,1.17,1.91l.54,1.71.1,4-.1.39c-.36.33-.54.54-.54.64l.15,1-.39,1.37a1.22,1.22,0,0,1-.49.83.9.9,0,0,0-.44.49l-.29.39a7.06,7.06,0,0,0-.42.85,3.54,3.54,0,0,1-.71,1.1,1.76,1.76,0,0,0-.49.93,1.07,1.07,0,0,1-.48.78,1.82,1.82,0,0,0-.57.51A1.34,1.34,0,0,1,222.06,528.32Zm-15.17,1.27.19,1.12.1.1H208l.25.1a8,8,0,0,0,1.46.19,3.61,3.61,0,0,0,2.41-.76,2.6,2.6,0,0,1,1.44-.75c.35,0,.65-.25.9-.73s.4-.74.46-.74h.68l.2-.09a1.68,1.68,0,0,1,1-1.62,3,3,0,0,0,1.41-1.29,3.6,3.6,0,0,1,1-1.22,2,2,0,0,0,.73-1.1l.39-.59a1,1,0,0,0,.19-.73l.93-1.76a8.34,8.34,0,0,0,.29-1.9,1.8,1.8,0,0,0-1-1.61,2.4,2.4,0,0,1-1.05-2.3,2.71,2.71,0,0,1,1.14-2.07c.77-.64,1.15-1,1.15-1.15a.26.26,0,0,0-.29-.29,6.16,6.16,0,0,0-1.13.39c-.22.45-1.38,1.06-3.45,1.81a8.12,8.12,0,0,0-1.12-.49c-.2,0-.4.19-.59.58a2.73,2.73,0,0,1-.58.83h-.64c-.06,0-.27.22-.63.64a1.72,1.72,0,0,1-1.37.63l-.58.59a2.05,2.05,0,0,1-1,1.61l-.54.63c-.33.4-.75.85-1.27,1.37l-.87,2.2a5.52,5.52,0,0,0-.54,1.9,1.72,1.72,0,0,1-.66.61.94.94,0,0,0-.51.81,1.38,1.38,0,0,0,.34.49,1.09,1.09,0,0,1,.34.58l-.19.64-.2,1.81Z"/><path class="cls-1" d="M236.62,513.62l.69.29a2,2,0,0,1,.93-1.41h.4c.32,0,.75-.44,1.27-1.32l.83-.49a1.33,1.33,0,0,0,.59.1.73.73,0,0,0,.57-.39,16.34,16.34,0,0,1,1.35-1.52h.19a1.09,1.09,0,0,0,.71-.43,1.44,1.44,0,0,1,1.11-.44l1.66-.44c.53-.13.82-.2.88-.2.3-.1,1,.5,2.15,1.78a5.75,5.75,0,0,1,1.71,3.74,1.15,1.15,0,0,1-1.07,1.22l-.25.19v1l-.83,1.81a1.68,1.68,0,0,1-.83.93c-.29.52-.5.87-.63,1.07l-.69.1-.29.29v1.22a15.34,15.34,0,0,0-1.27,2.56,9.62,9.62,0,0,0-.83,2.52q0,.93.39.93a.9.9,0,0,0,.59-.25,7,7,0,0,1,.8-.56,2.42,2.42,0,0,0,.76-.66,2.1,2.1,0,0,1,1-.61,3.61,3.61,0,0,0,1.47-1,12.33,12.33,0,0,1,1-1,5.11,5.11,0,0,0,.63-.66c.23-.27.37-.41.44-.41a3.36,3.36,0,0,0,.93-.2,4.92,4.92,0,0,1,.19-.78l1.17-.58,2.83-2.54.39-.49a7.34,7.34,0,0,0,1-.29,3.22,3.22,0,0,1,1.32-1.91c0-.13.16-.22.48-.29a3.59,3.59,0,0,1,1-1.25,3.82,3.82,0,0,0,1-1.14l1.12-.93a1.25,1.25,0,0,0,.68-.59A26.29,26.29,0,0,1,267.3,508a4.51,4.51,0,0,1,2-.32,2.73,2.73,0,0,1,2.22,1.05,6.22,6.22,0,0,0,1.86,1.59,2.11,2.11,0,0,1,1,2q0,1.41-2.2,5.42a30.13,30.13,0,0,0-1.46,5.15c0,.64-.18,1-.44,1.1s-.39.21-.39.34v.2q0,1.17.39,1.17a1.4,1.4,0,0,0,.8-.49,6.94,6.94,0,0,1,2.08-1.07l.43.09a7.58,7.58,0,0,1,1.9-2.32,2.12,2.12,0,0,0,1-.87,1.56,1.56,0,0,1,1.2-.76,1.43,1.43,0,0,0,.9-.25c0-.78.67-1.66,1.92-2.63a8.91,8.91,0,0,1,2.16-1.47c.33,0,.59.25.78.74a2.74,2.74,0,0,0,.61,1c.21.18.32.33.32.46v.88a.8.8,0,0,1-.64.83,2.66,2.66,0,0,1-.87,1.27l-.88-.1-.42.54c-.11.16-.18.23-.22.19a4.37,4.37,0,0,0-1.38,1.3c-.67.8-1.26,1.45-1.78,2l-.2.29a2.49,2.49,0,0,1-.73.39l-.87.73a2.26,2.26,0,0,0-.59-.29c-.06,0-.2.13-.41.39a6.2,6.2,0,0,1-1.27,1,4.69,4.69,0,0,0-1.44,1.39l-.78.78-1,.15c-.1,0-.26.15-.49.44l-.87,1.12a2.35,2.35,0,0,1-2,.83c-.2,0-.45-.17-.76-.51a12.16,12.16,0,0,0-.87-.88,22.08,22.08,0,0,1-1.86-2.2,18.54,18.54,0,0,1-1.44-1.93l.3-1.7-.1-1.18a2.34,2.34,0,0,1,.46-1,7.14,7.14,0,0,0,.47-.75l-.1-1.91a1,1,0,0,0,.19-.29l.69-1.12a5.22,5.22,0,0,1-.1-1.08l.19-1.61A3.47,3.47,0,0,0,263,517.7a2,2,0,0,1-1.74,1.19q-.93,1.67-1.41,1.62a1.7,1.7,0,0,0-.3.39l-.68.39-.83-.1-.29,1.22a4.21,4.21,0,0,0-1.4,1.05,3.84,3.84,0,0,1-1,.95l-.83.78h-.78a3.17,3.17,0,0,1-1.51,2.2l-.39.49-.88-.1a3,3,0,0,1-1.22,1.91c-.56,0-1.32.5-2.28,1.51s-1.63,1.51-2,1.51q-4.26,0-6.89-5.32a7.84,7.84,0,0,0-.46-.73,2.94,2.94,0,0,1-.37-1.66,4.64,4.64,0,0,1,.51-2.59,13.16,13.16,0,0,0,1.32-2.56c.54-1.26.94-1.8,1.2-1.64a1.43,1.43,0,0,0,.1-.59,2.66,2.66,0,0,0,.78-1.41.18.18,0,0,0-.2-.2,2.12,2.12,0,0,0-.58.3l-.69.29a.93.93,0,0,0-.64.39,1.86,1.86,0,0,1-.69.56c-.32.18-.58.34-.78.47h-.15q-.28-.3-.39-.3a3.36,3.36,0,0,1-.49,1l-.59.1c-.72.75-1.18,1.12-1.37,1.12a2.84,2.84,0,0,1-.89-.34c-.45-.23-.68-.46-.68-.69l.34-1.9v-.88q0-.09.39-.39a4.22,4.22,0,0,0,.79-1.05A1.93,1.93,0,0,1,236.62,513.62Z"/><path class="cls-1" d="M283.89,528.71l-.4-2.49a2.51,2.51,0,0,1,.3-.93.67.67,0,0,0,.49-.19l-.3-.88a4.71,4.71,0,0,1,1-3,6.41,6.41,0,0,0,1.05-1.68,20,20,0,0,1,1.39-2.86,17.85,17.85,0,0,1,1.93-3.1l.29-.63.39-.1a11.43,11.43,0,0,1,3.18-3.27,6.22,6.22,0,0,1,1.66-1.76,15.94,15.94,0,0,0,1.32-1,2.1,2.1,0,0,1,1-.39l.2-.1a3.85,3.85,0,0,1,2.44-1.41,4.56,4.56,0,0,1,1.37-.78h.54a1,1,0,0,0,.58-.2,1.06,1.06,0,0,1,.59-.19,4,4,0,0,1,1,.39,2.12,2.12,0,0,1,1.27-.78,3.89,3.89,0,0,1,3.42,2.68,3.75,3.75,0,0,0,.49,1.32,3,3,0,0,1,.39.49c.26,0,.6-.6,1-1.81l.59-.78a9.84,9.84,0,0,0,1.82-4,3.16,3.16,0,0,0,.29-.81,16.86,16.86,0,0,1,1-2.42,13.71,13.71,0,0,0,2-4.2l.59-.87a1.25,1.25,0,0,0,.64-.86,2,2,0,0,1,.29-.85c.16-.26.35-.58.56-1a4.25,4.25,0,0,1,.52-.75,4.86,4.86,0,0,0,.58-1.35c.26-.76.58-1.19.95-1.29a3.85,3.85,0,0,0,1.15-.54l.1-.34-.2-.68c0-.39.44-1.08,1.3-2a16.63,16.63,0,0,0,1.85-2.42c.38-.63,1-1.61,1.91-2.93a12.14,12.14,0,0,1,1.93-2.42l1.12-1.17a2.51,2.51,0,0,1,2.2-1.12,3.31,3.31,0,0,1,2.24,1.15,3.27,3.27,0,0,1,1.18,2.27,7.2,7.2,0,0,1-.54,1.8l-.1.59A4.24,4.24,0,0,1,334,481a6.27,6.27,0,0,0-.63,1.66l-2.74,6.69a2.27,2.27,0,0,0-.58.3c-.85,1.85-1.52,2.86-2,3v1q0,.54-.69.78l-.19.1a6.84,6.84,0,0,1-1.13,2.69,5.92,5.92,0,0,0-1,1.68,1.26,1.26,0,0,1-1,.95c-.45.07-.68.7-.68,1.91-.13.65-.46,1-1,1s-.8.43-.93,1.27-.76,1.31-1.9,1.37a1.18,1.18,0,0,0-.59.68l.4,1.22a9.72,9.72,0,0,1-1.81,2.3l-.39,1.27c-.62.23-1.13,1.9-1.52,5l-.58,3.37.1,1.32-.2.68.59,2-.1,1.12c0,.53.19.79.58.79.2,0,.64-.3,1.32-.88l.69-.3q3.06-1.56,3.8-3a2.05,2.05,0,0,1,.7-.39,1.59,1.59,0,0,0,.76-.54,3.74,3.74,0,0,1,.39-.49,12.63,12.63,0,0,0,3.85-3.42,3.68,3.68,0,0,1,1.8-1.76l.39-.39a1.72,1.72,0,0,1,1-.48c.56,0,.83.16.83.48l-.39,1.37a8.7,8.7,0,0,1,.49,1.51,1.92,1.92,0,0,1-1.51,2.1,4.94,4.94,0,0,0-1,1.47,1.89,1.89,0,0,1-1.58,1,4.89,4.89,0,0,1-1.52,1.54c-.45.25-.68.5-.68.76v.44a3,3,0,0,1-.68.78l-.93-.2a7.75,7.75,0,0,1-.88,1.62.77.77,0,0,0-.44-.2,1.31,1.31,0,0,0-1.13.83c-.29.55-.5.83-.63.83h-1.12a5.57,5.57,0,0,0-.79.64,2.68,2.68,0,0,1-1.8.48l-1.52.3a6.41,6.41,0,0,1-4-1.39,4.28,4.28,0,0,1-1.92-2.54,10.51,10.51,0,0,0-.81-2.76l-.1-2c-.36-2.09-.76-3.13-1.22-3.13l-.1.64-.39.19c-.19,1-.52,1.51-1,1.51a3,3,0,0,0-.63.49l-.3.2c-.13.06-.31.34-.56.83a7.71,7.71,0,0,1-2,2c-.45,1.2-.8,1.81-1,1.81l-.59-.4h-.1c-.26,0-.47.39-.63,1.15s-.49,1.15-1,1.15c-.13,0-.25.22-.37.66a1.08,1.08,0,0,1-.85.83c-.46.11-.87.56-1.23,1.34s-.6,1.17-.73,1.17a.81.81,0,0,1-.29-.09l-.83.19c-.17.23-.39.6-.69,1.12a3.16,3.16,0,0,0-.78.39,5.52,5.52,0,0,1-4,1.47,4.54,4.54,0,0,1-2.78-.76A3.35,3.35,0,0,1,285.3,532a6.35,6.35,0,0,0-.73-1.34A4.43,4.43,0,0,1,283.89,528.71Zm19.5-11.09.34-.63a1.77,1.77,0,0,0,1.07-1.46,19.49,19.49,0,0,0,2-2.54,14,14,0,0,0,1.61-2.49,1.54,1.54,0,0,0-1.13-.49,2.56,2.56,0,0,0-.58.19,6,6,0,0,1-1,.3,3.84,3.84,0,0,0-1.1.39l-1.22-.2a6.32,6.32,0,0,0-2.4,1.42l-1.12-.2c-.2,0-.52.43-1,1.27l-2.49,2h-.29c-.46,0-.77.41-.93,1.22a5.58,5.58,0,0,1-1.57,1.49,2.27,2.27,0,0,0-1,1.2v.63a4.33,4.33,0,0,0-1.37,2.3,4.67,4.67,0,0,0-1.34,2.1,9.26,9.26,0,0,1-.76,1.9,9.33,9.33,0,0,1,.29,1.69c.07.67.39,1,1,1a4.74,4.74,0,0,0,3.13-1.71,8.46,8.46,0,0,1,.83-.54,11.89,11.89,0,0,0,2-1.73,12.22,12.22,0,0,1,1.45-1.34c.32-.33.52-.49.58-.49l.39-.39c0-.13.14-.28.42-.44a5.48,5.48,0,0,0,1.1-1,3.45,3.45,0,0,1,1.05-.91.93.93,0,0,0,.51-.41,1.56,1.56,0,0,1,.49-.51.69.69,0,0,0,.34-.54l.1-.59Zm16.94-19.82-.49,1.42c.42-.07.8-.51,1.12-1.32a19.9,19.9,0,0,1,2-2.59c.42,0,.74-.27.95-.81a4.44,4.44,0,0,1,1.15-1.58,3.11,3.11,0,0,1,.73-1.32,12.51,12.51,0,0,0,.95-1.39,5.55,5.55,0,0,1,.9-1.1,6.66,6.66,0,0,0,1.3-2.34,5,5,0,0,1,1.05-2,1.66,1.66,0,0,0,.44-1.36c0-.95-.07-1.42-.2-1.42-.29,0-.51.19-.66.56a5.35,5.35,0,0,1-.95,1.44L327,486.77a14.23,14.23,0,0,0-1.29,2.63c-.22.65-.46,1-.74,1.15a2.88,2.88,0,0,0-1,.95l-.68.69a7.08,7.08,0,0,0-.39,1.41l-.44.39v.93a1.45,1.45,0,0,1-.73,1.15c-.49.34-.74.56-.74.66Z"/><path class="cls-1" d="M330.86,513.62l.69.29a2,2,0,0,1,.93-1.41h.39c.33,0,.76-.44,1.28-1.32l.83-.49a1.31,1.31,0,0,0,.59.1c.2,0,.38-.13.56-.39a17,17,0,0,1,1.36-1.52h.19a1.11,1.11,0,0,0,.71-.43,1.43,1.43,0,0,1,1.1-.44l1.67-.44c.52-.13.82-.2.88-.2.3-.1,1,.5,2.15,1.78a5.75,5.75,0,0,1,1.71,3.74,1.15,1.15,0,0,1-1.07,1.22l-.25.19v1l-.83,1.81a1.68,1.68,0,0,1-.83.93c-.29.52-.5.87-.63,1.07l-.69.1-.29.29v1.22a14.57,14.57,0,0,0-1.27,2.56,9.62,9.62,0,0,0-.83,2.52q0,.93.39.93a.9.9,0,0,0,.59-.25,7,7,0,0,1,.8-.56,2.54,2.54,0,0,0,.76-.66,2,2,0,0,1,1-.61,3.68,3.68,0,0,0,1.47-1c.45-.49.78-.81,1-1a4.52,4.52,0,0,0,.64-.66c.22-.27.37-.41.44-.41a3.24,3.24,0,0,0,.92-.2,4.72,4.72,0,0,1,.2-.78l1.17-.58,2.83-2.54.39-.49a7.34,7.34,0,0,0,1-.29,3.25,3.25,0,0,1,1.31-1.91c0-.13.17-.22.49-.29a3.48,3.48,0,0,1,1-1.25,3.66,3.66,0,0,0,1-1.14l1.12-.93a1.24,1.24,0,0,0,.69-.59,27.5,27.5,0,0,1,3.14-2.56,4.59,4.59,0,0,1,2-.32,2.73,2.73,0,0,1,2.22,1.05,6.22,6.22,0,0,0,1.86,1.59,2.12,2.12,0,0,1,1,2q0,1.41-2.2,5.42a30.13,30.13,0,0,0-1.46,5.15c0,.64-.18,1-.44,1.1s-.39.21-.39.34v.2q0,1.17.39,1.17a1.4,1.4,0,0,0,.8-.49,6.73,6.73,0,0,1,2.07-1.07l.44.09a7.43,7.43,0,0,1,1.9-2.32,2.12,2.12,0,0,0,1-.87,1.54,1.54,0,0,1,1.19-.76,1.43,1.43,0,0,0,.9-.25c0-.78.68-1.66,1.93-2.63a8.71,8.71,0,0,1,2.16-1.47c.33,0,.59.25.78.74a2.61,2.61,0,0,0,.61,1c.21.18.31.33.31.46v.88a.81.81,0,0,1-.63.83,2.66,2.66,0,0,1-.88,1.27l-.87-.1c-.17.2-.3.38-.42.54s-.18.23-.22.19c-.26.07-.72.5-1.39,1.3s-1.25,1.45-1.77,2l-.2.29a2.49,2.49,0,0,1-.73.39l-.88.73a2.27,2.27,0,0,0-.58-.29c-.07,0-.2.13-.41.39a6.2,6.2,0,0,1-1.27,1,4.58,4.58,0,0,0-1.44,1.39l-.78.78-1,.15c-.1,0-.26.15-.49.44l-.88,1.12a2.32,2.32,0,0,1-2,.83c-.2,0-.45-.17-.76-.51a10.41,10.41,0,0,0-.88-.88,24.25,24.25,0,0,1-1.85-2.2,18.54,18.54,0,0,1-1.44-1.93l.29-1.7-.09-1.18a2.34,2.34,0,0,1,.46-1,6,6,0,0,0,.46-.75l-.09-1.91a1,1,0,0,0,.19-.29l.69-1.12a5.22,5.22,0,0,1-.1-1.08l.19-1.61a3.49,3.49,0,0,0-1.54,1.59,1.94,1.94,0,0,1-1.73,1.19c-.62,1.11-1.09,1.65-1.42,1.62a1.64,1.64,0,0,0-.29.39l-.68.39-.83-.1-.3,1.22a4.15,4.15,0,0,0-1.39,1.05,3.84,3.84,0,0,1-1,.95l-.83.78H348a3.19,3.19,0,0,1-1.52,2.2l-.39.49-.87-.1a3,3,0,0,1-1.23,1.91c-.55,0-1.31.5-2.27,1.51s-1.63,1.51-2,1.51q-4.26,0-6.89-5.32c-.07-.13-.22-.37-.46-.73A2.94,2.94,0,0,1,332,525a4.64,4.64,0,0,1,.51-2.59,14.4,14.4,0,0,0,1.32-2.56c.54-1.26.94-1.8,1.2-1.64a1.45,1.45,0,0,0,.09-.59,2.63,2.63,0,0,0,.79-1.41.18.18,0,0,0-.2-.2,2.26,2.26,0,0,0-.59.3l-.68.29a.93.93,0,0,0-.64.39,1.86,1.86,0,0,1-.69.56c-.33.18-.59.34-.78.47h-.15q-.3-.3-.39-.3a3.36,3.36,0,0,1-.49,1l-.59.1c-.72.75-1.18,1.12-1.38,1.12a2.83,2.83,0,0,1-.88-.34q-.69-.35-.69-.69l.35-1.9v-.88q0-.09.39-.39a4.07,4.07,0,0,0,.78-1.05A2,2,0,0,1,330.86,513.62Z"/><path class="cls-1" d="M419.06,523.83h.2l.49.19a.27.27,0,0,0,.19-.1,1.72,1.72,0,0,1,.78-1.41,2.27,2.27,0,0,1,1.1-1.42c.58-.32,1.48-.86,2.72-1.61l1.23-1.07.58-.3.39-.49a1.47,1.47,0,0,1,1-.63c.49,0,.74.18.74.54l-.44,1,.19,1.61a2.28,2.28,0,0,1-.61,1.57c-.41.45-1,1.12-1.88,2l-2.5,2.64L422,527a4.91,4.91,0,0,0-.88.68l-1.9,1.61a1.23,1.23,0,0,1-.44,1H418l-.4.2a3.91,3.91,0,0,1-2,1.8l-.69.49a1,1,0,0,1-.63.29l-1.37-.19-.93.19a2.28,2.28,0,0,1-1.05-.39,7,7,0,0,0-1.34-.61c-.46-.14-1-.75-1.74-1.8a8.71,8.71,0,0,1-1.15-2.08,1.8,1.8,0,0,0-.22-.66,2.06,2.06,0,0,1-.22-.56,6.68,6.68,0,0,1,.44-1v-.09a2.28,2.28,0,0,0-.27-.69,2.9,2.9,0,0,1-.27-1.32,2.93,2.93,0,0,0-.29-1.12c.26-.26.39-.45.39-.59a1.66,1.66,0,0,0-.15-.56,1.79,1.79,0,0,1-.14-.56l.29-2.39-.19-1.22.09-1.17c0-.69-.29-1-.87-1a1.64,1.64,0,0,0-1,.54l-.34.1a11.25,11.25,0,0,0-1.85,1.05,1.8,1.8,0,0,1-1.11.41,2.69,2.69,0,0,1-1.12.54l-.39.29a5.72,5.72,0,0,1-.78.59,11.34,11.34,0,0,1-1.83,1.63c-1.21,1-2.31,1.93-3.28,2.81a5.69,5.69,0,0,1-2.12,1.44c-.43.08-.65.5-.65,1.25,0,.13-.3.39-.88.78a6.84,6.84,0,0,0-1,1.07,3.93,3.93,0,0,0-.88-.58c-.42,0-.73.53-.93,1.61-.19.42-.72.68-1.56.78-.07,0-.18.27-.35.73l-.19.2h-.49c-.07,0-.29.18-.69.56a2.9,2.9,0,0,1-1,.7q-.64,1.32-1.08,1.32a1.3,1.3,0,0,1-.56-.19,4.14,4.14,0,0,0-.91-.34q-.54-.15-1.2-1.2a3.54,3.54,0,0,1-.66-1.78c0-3.62.7-5.58,2.1-5.91l.1-.2v-.39a.93.93,0,0,1,.56-.9,3.3,3.3,0,0,0,1.15-1.07,4,4,0,0,1,.78-.91h.64c.13,0,.19-.34.19-1a.72.72,0,0,1,.25-.54,1.13,1.13,0,0,0,.29-.71,4.31,4.31,0,0,1,.71-1.51,4.68,4.68,0,0,0,.66-1.25l-.1-.19a4.76,4.76,0,0,1-1.76,1.22c-.36.06-.85.54-1.46,1.41l-.78-.14a18.49,18.49,0,0,1-2.55,1.71,2.8,2.8,0,0,0-1.08,1.12.38.38,0,0,1-.34.39,5.77,5.77,0,0,0-1.27.78h-.29c-.82,0-1.23-.58-1.23-1.76l1-2.78a4.08,4.08,0,0,1,2.07-2.22A25.48,25.48,0,0,0,380.8,513a4,4,0,0,1,2.24-.88l.34-.49a3.71,3.71,0,0,0,2.24-2c.4-.91.93-1.37,1.62-1.37a4.72,4.72,0,0,1,4.09,2,6.08,6.08,0,0,1,1.42,3.15l.1,1.32a8.55,8.55,0,0,1-.3,1.9,2.79,2.79,0,0,0-.58,1.32q0,.39.48.39a1.41,1.41,0,0,0,.79-.42,6.76,6.76,0,0,1,1.09-.75c.41-.23.65-.43.71-.59a2.78,2.78,0,0,1,1.71-1.61,4.88,4.88,0,0,0,1.51-.73l.49-.39.39-.74a5.31,5.31,0,0,0,1.75-1.07,2.1,2.1,0,0,1,1.18-.64,4.08,4.08,0,0,0,1.65-.87l.74-.2.68-.39a1.68,1.68,0,0,1,.58-.24c.33-.1.81-.27,1.44-.52a4.68,4.68,0,0,1,1.3-.36,4.57,4.57,0,0,1,3.92,2,6.17,6.17,0,0,1,1.44,3.22l-.09.88.19,1.32v.19l-.39,2.69.1.93a4.14,4.14,0,0,1-1,3.17c-.16.07-.24.23-.24.49v.44l1,2c.3.72.52,1.07.69,1.07l1.56-.44a1.88,1.88,0,0,0,1.13-1,7.11,7.11,0,0,0,1.37-1.17Q418.43,523.83,419.06,523.83Z"/></svg>