<?xml version="1.0" encoding="utf-8"?>
<!-- Generator: Adobe Illustrator 26.3.1, SVG Export Plug-In . SVG Version: 6.00 Build 0)  -->
<svg version="1.1" id="_x30_" xmlns="http://www.w3.org/2000/svg" xmlns:xlink="http://www.w3.org/1999/xlink" x="0px" y="0px"
	 viewBox="0 0 566.93 566.93" style="enable-background:new 0 0 566.93 566.93;" xml:space="preserve">
<style type="text/css">
	.st0{stroke:#000000;stroke-width:0.25;stroke-linecap:round;stroke-linejoin:round;stroke-miterlimit:10;}
	.st1{fill:#231815;}
</style>
<g id="ARC_00000104705823764274009370000009979524165341924512_">
	<path class="st0" d="M286.78,272.4c-1.98,0-3.97,0.06-5.95,0.17"/>
</g>
<g id="ARC_00000118374596964838623180000006246028355684561070_">
	<path class="st0" d="M286.78,272.4c10.34,0,20.63-1.51,30.54-4.48c0.45-0.13,0.7-0.61,0.57-1.06c-0.12-0.4-0.51-0.65-0.92-0.6
		c-12.12,1.54-24.2,3.36-36.23,5.46c-0.23,0.04-0.39,0.26-0.35,0.49c0.04,0.21,0.23,0.36,0.44,0.35"/>
</g>
<g id="ARC_00000058577987193699324470000014280172720703345053_">
	<path class="st0" d="M247.37,65.19c0.39-0.27,0.48-0.8,0.21-1.18c-0.19-0.28-0.53-0.41-0.86-0.35c-6.14,1.18-12.22,2.63-18.24,4.34
		c-7.64,2.18-14.67,6.12-20.53,11.5c-102.58,94.27-109.32,253.85-15.05,356.43c1.11,1.21,2.23,2.4,3.36,3.58
		c0.32,0.34,0.86,0.35,1.2,0.03c0.32-0.31,0.35-0.82,0.06-1.16c-4.98-5.93-9.68-12.09-14.1-18.45
		C103.13,304.31,131.76,145.49,247.37,65.19z"/>
</g>
<g id="ARC_00000069390435326602646160000001150850295281417654_">
	<path class="st0" d="M174.61,93.81c0.31-0.36,0.27-0.89-0.09-1.2c-0.28-0.24-0.69-0.27-1.01-0.08
		c-10.3,6.49-20.02,13.84-29.06,21.99c-5.81,5.24-10.67,11.44-14.38,18.33c-60.87,113.33-25.3,254.38,82.03,325.3
		c0.39,0.26,0.92,0.15,1.18-0.24c0.25-0.37,0.16-0.88-0.2-1.15c-4.23-3.2-8.35-6.54-12.37-10
		C96.04,356.52,84.35,198.49,174.61,93.81z"/>
</g>
<g id="ARC_00000126315507994647713390000008471282341423587485_">
	<path class="st0" d="M92.31,190.89c0.1-0.46-0.18-0.91-0.64-1.02c-0.4-0.09-0.81,0.12-0.97,0.5
		c-45.3,108.3,5.76,232.82,114.06,278.12s232.82-5.76,278.12-114.06c40.96-97.91,3.42-211.03-87.96-265.02
		c-1.01-0.6-2.31-0.26-2.91,0.75s-0.26,2.31,0.75,2.91c55.58,32.84,92.79,89.59,100.75,153.66
		c14.18,114.17-66.87,218.21-181.04,232.39c-39.92,4.96-80.31-4.4-113.98-26.4C111.92,396.15,69.59,291.77,92.31,190.89z"/>
</g>
<g id="SPLINE">
	<path class="st0" d="M377.11,112.08C276.83,152.59,204.1,241.4,184.15,347.69c-0.08,0.44-0.49,0.74-0.93,0.69
		c-0.47-0.05-0.8-0.48-0.75-0.94c11.57-100.56,72.56-188.71,162.58-235c0.97-0.5,1.96-0.99,3.11-1.45c1.16-0.46,2.48-0.89,3.99-1.27
		c1.51-0.38,3.2-0.7,5-0.95c1.8-0.25,3.7-0.43,5.58-0.53c1.88-0.1,3.73-0.12,5.43-0.05s3.24,0.22,4.54,0.45
		c1.29,0.23,2.33,0.53,3.11,0.9c0.78,0.36,1.29,0.78,1.65,1.23c0.05,0.06,0.09,0.14,0.13,0.21
		C377.76,111.41,377.55,111.91,377.11,112.08z"/>
</g>
<g id="SPLINE_00000023981616149480706280000000112780166954620326_">
	<path class="st0" d="M360.39,91.16C247.76,137.48,175.76,248.9,179.81,370.62c0.01,0.45-0.32,0.83-0.76,0.87
		c-0.47,0.05-0.88-0.29-0.93-0.76c-11.78-115.57,48.49-226.55,151.85-279.59c0.8-0.41,1.62-0.82,2.6-1.2
		c0.98-0.38,2.14-0.74,3.48-1.05s2.87-0.58,4.52-0.79c1.65-0.21,3.42-0.36,5.19-0.44s3.54-0.1,5.19-0.05
		c1.65,0.05,3.17,0.17,4.48,0.36c1.3,0.18,2.39,0.43,3.24,0.72c0.85,0.29,1.46,0.64,1.93,1c0.12,0.09,0.21,0.21,0.26,0.35
		C361.03,90.49,360.83,90.98,360.39,91.16z"/>
</g>
<g id="SPLINE_00000080191416536576677660000013809086021881024140_">
	<path class="st0" d="M185.06,417.94c0.24,0.4,0.76,0.53,1.17,0.29c0.38-0.23,0.52-0.72,0.32-1.12c-0.38-0.74-0.75-1.47-1.13-2.21
		C120.35,285.36,172.6,127.6,302.13,62.52c0.42-0.21,0.59-0.72,0.38-1.14c-0.12-0.25-0.36-0.42-0.64-0.46
		c-1.51-0.22-3.03-0.4-4.55-0.55c-0.67-0.07-1.35-0.12-2.24-0.11c-0.89,0.01-1.98,0.09-3.29,0.26c-1.31,0.16-2.84,0.41-4.51,0.73
		c-1.67,0.32-3.46,0.71-5.25,1.13c-1.79,0.43-3.57,0.89-5.2,1.36s-3.11,0.94-4.35,1.38c-1.24,0.45-2.25,0.87-3.04,1.26
		s-1.38,0.75-1.94,1.11C149.71,142.74,113.17,298.06,185.06,417.94z"/>
</g>
<g id="SPLINE_00000075134965935317812290000014161484815287968399_">
	<path class="st0" d="M336.76,73.9c-123.76,53.78-190,189.6-156.17,320.23c0.11,0.43-0.13,0.88-0.56,1.02
		c-0.45,0.15-0.93-0.09-1.07-0.54c-40.38-121.94,11.52-255.38,123.7-317.98c0.81-0.45,1.63-0.9,2.66-1.34
		c1.03-0.44,2.26-0.88,3.73-1.29c1.46-0.41,3.16-0.81,5-1.16s3.83-0.66,5.83-0.91c2-0.25,4-0.44,5.87-0.55s3.59-0.15,5.07-0.11
		c1.48,0.04,2.71,0.16,3.69,0.35c0.98,0.19,1.7,0.44,2.29,0.73c0.19,0.09,0.33,0.24,0.41,0.43
		C337.39,73.21,337.19,73.71,336.76,73.9z"/>
</g>
<g id="SPLINE_00000153704037982595819400000005935466036691815339_">
	<path class="st0" d="M344.11,255.31c-26.29,4.73-52.29,10.91-77.89,18.52c-0.42,0.13-0.87-0.09-1.03-0.5
		c-0.18-0.44,0.04-0.93,0.47-1.11c19.02-7.65,38.39-14.41,58.05-20.26c0.83-0.25,1.66-0.49,2.59-0.69c0.92-0.2,1.94-0.37,3.04-0.47
		c1.1-0.1,2.29-0.15,3.51-0.13c1.22,0.02,2.48,0.1,3.69,0.24c1.21,0.14,2.38,0.33,3.42,0.57c1.04,0.24,1.95,0.52,2.68,0.83
		c0.73,0.31,1.27,0.65,1.63,1s0.51,0.71,0.55,1.08C344.85,254.83,344.55,255.23,344.11,255.31z"/>
</g>
<g id="SPLINE_00000178916799061320999100000012687377881709084598_">
	<path class="st0" d="M373.38,227.06c-45.11,12.74-88.56,30.76-129.45,53.68c-0.38,0.22-0.87,0.1-1.12-0.26
		c-0.26-0.39-0.17-0.92,0.22-1.18c31.69-21.66,65.6-39.86,101.15-54.31c1.17-0.48,2.36-0.95,3.69-1.37s2.79-0.79,4.4-1.07
		c1.6-0.29,3.34-0.5,5.13-0.61c1.79-0.11,3.62-0.14,5.37-0.07c1.75,0.07,3.42,0.23,4.89,0.48c1.46,0.25,2.72,0.57,3.69,0.96
		c0.97,0.39,1.66,0.84,2.07,1.34c0.41,0.49,0.55,1.03,0.57,1.57C374.01,226.61,373.75,226.95,373.38,227.06z"/>
</g>
<g id="SPLINE_00000072963137731471025100000014125699657726017943_">
	<path class="st0" d="M388.61,194.88c-60.82,21.24-116.83,54.31-164.8,97.31c-0.33,0.3-0.83,0.29-1.15-0.01
		c-0.34-0.32-0.36-0.86-0.03-1.2c39.77-42.14,87.4-76.11,140.2-100c1.06-0.48,2.14-0.95,3.34-1.36c1.2-0.41,2.53-0.74,3.98-0.98
		c1.45-0.24,3.02-0.38,4.62-0.41c1.6-0.03,3.25,0.05,4.81,0.23c1.56,0.18,3.04,0.47,4.32,0.83c1.28,0.37,2.37,0.82,3.2,1.32
		c0.83,0.5,1.39,1.07,1.71,1.65s0.4,1.21,0.38,1.83C389.17,194.45,388.95,194.76,388.61,194.88z"/>
</g>
<g id="SPLINE_00000183955780279196651300000016198504963170918016_">
	<path class="st0" d="M392.42,164.01c-74.61,28.69-139.18,78.62-185.73,143.62c-0.26,0.36-0.75,0.46-1.13,0.23
		c-0.4-0.24-0.53-0.77-0.29-1.17c37.32-61.86,91.53-111.77,156.26-143.85c1.15-0.57,2.32-1.14,3.65-1.65
		c1.33-0.51,2.81-0.97,4.45-1.35s3.43-0.67,5.29-0.87s3.78-0.29,5.63-0.28c1.85,0.01,3.63,0.13,5.2,0.34
		c1.57,0.21,2.94,0.53,4.01,0.92c1.07,0.39,1.86,0.87,2.37,1.4c0.51,0.53,0.73,1.11,0.84,1.72
		C393.02,163.48,392.8,163.87,392.42,164.01z"/>
</g>
<g id="SPLINE_00000119080768820548949870000013878824450077249966_">
	<path class="st0" d="M387.86,136.36c-87.55,34.95-157.57,103.33-194.59,190.03c-0.17,0.41-0.64,0.61-1.06,0.47
		c-0.44-0.15-0.68-0.64-0.53-1.08c28.01-81.98,86.76-149.88,163.88-189.37c1.03-0.53,2.07-1.05,3.28-1.53
		c1.21-0.48,2.58-0.93,4.13-1.32c1.55-0.39,3.28-0.71,5.11-0.95c1.83-0.25,3.75-0.41,5.65-0.49s3.76-0.07,5.46,0.03
		c1.7,0.1,3.24,0.29,4.51,0.56c1.28,0.27,2.29,0.62,3.04,1.03c0.75,0.41,1.22,0.88,1.53,1.37c0.03,0.04,0.05,0.09,0.07,0.14
		C388.51,135.7,388.29,136.19,387.86,136.36z"/>
</g>
<g>
	<path class="st1" d="M228.35,352.4l0.25-0.32c0.15-0.21,0.36-0.33,0.63-0.36c0.27-0.03,0.54-0.11,0.79-0.24l4.64-1.29
		c0.44-0.1,0.99-0.19,1.64-0.25l1.01-0.32c0.27-0.13,0.66-0.19,1.17-0.19l1.04-0.22c0.08,0,0.16,0.08,0.22,0.24
		c0.06,0.16,0.11,0.24,0.16,0.24c0.99-0.65,1.62-0.98,1.89-0.98h0.06l0.76,0.19c0.13,0,0.26-0.08,0.41-0.25l0.13-0.13
		c0.46,0.21,0.71,0.32,0.76,0.32c0.32,0,0.67-0.06,1.07-0.19c0.4-0.13,0.78-0.19,1.14-0.19l0.98,0.06l2.18-0.13
		c0.13,0,0.26,0.06,0.41,0.19l0.63-0.13c0.61,0,1.22,0.08,1.82,0.25c0.6,0.17,1.32,0.29,2.16,0.38c0.84,0.08,1.45,0.37,1.83,0.85
		l0.54,0.19h0.38c0.55,0,0.87,0.22,0.98,0.66c0.13,0.25,0.38,0.51,0.76,0.76l0.41,0.66c-0.04,0.13-0.06,0.25-0.06,0.38
		s0.23,0.27,0.69,0.44l0.13,0.06c0.02,0.32,0.22,0.68,0.6,1.09c0.38,0.41,0.57,1.17,0.57,2.29v0.76l0.13,1.64
		c0,1.12-0.33,2.46-0.99,4.04c-0.66,1.58-1.36,2.68-2.1,3.32c-0.17,0.57-0.37,0.85-0.6,0.85c-0.74,0.67-1.21,1.01-1.42,1.01
		c-0.04,0-0.11-0.02-0.19-0.06c-0.27,0.51-0.73,0.95-1.37,1.33c-0.64,0.38-1.06,0.6-1.25,0.66s-0.67,0.24-1.45,0.54l-0.76-0.19
		c-0.32,0.29-0.54,0.45-0.66,0.47l-1.67,0.69c-1.41,0.38-2.34,0.57-2.78,0.57l-0.79-0.25c-0.13,0-0.32,0.16-0.57,0.47l-0.6,0.13
		c-0.13-0.13-0.54-0.22-1.23-0.28c-0.29,0.19-0.54,0.28-0.73,0.28l-1.39,0.19c-0.17,0-0.27-0.16-0.32-0.47l-0.28,0.09l-0.13,0.44
		c-0.08,0.04-0.19,0.06-0.32,0.06l-1.67-0.19l-0.79,0.19l-1.29-0.25l-0.63,0.06l-0.54-0.25l-0.51,0.06l-0.5-0.13l-0.6,0.13
		l-0.13-0.06c-0.08,0.17-0.19,0.31-0.32,0.41c-0.13,0.11-0.3,0.33-0.51,0.66c-0.48,0.4-0.79,0.88-0.92,1.45s-0.49,0.88-1.11,0.95
		c-0.04,0.08-0.11,0.19-0.19,0.32c0.04,0.04,0.11,0.22,0.19,0.54v0.13c0,0.51-0.41,1.02-1.23,1.55c-0.13,0.76-0.28,1.31-0.46,1.64
		c-0.18,0.34-0.3,0.62-0.36,0.84c-0.06,0.22-0.24,0.41-0.54,0.55l-0.13,0.19v0.92c0,0.04-0.06,0.17-0.19,0.39
		c-0.13,0.22-0.31,0.54-0.54,0.96l-0.19,0.32l-0.25,1.04c-0.42,0.29-0.63,0.71-0.63,1.23l0.06,1.8c0,0.32-0.21,0.64-0.62,0.98
		c-0.41,0.34-0.82,0.51-1.22,0.51c-1.03,0-1.74-0.62-2.12-1.86l-0.19-0.25c-0.44-0.36-0.66-0.89-0.66-1.61
		c0-0.82,0.43-2.05,1.29-3.69l2.08-3.76c0.02-0.04,0.29-0.23,0.82-0.57l0.35,0.13c0.08-0.04,0.13-0.13,0.13-0.25
		c0-0.04-0.12-0.35-0.35-0.92v-0.13c0-0.17,0.07-0.27,0.22-0.32l0.25-0.28l-0.06-0.63c0.38-0.57,0.58-0.94,0.6-1.11l0.32-0.73
		c0.21-0.48,0.38-0.74,0.51-0.76c0-0.84,0.25-1.46,0.76-1.86l0.25-0.54c0.06-0.13,0.2-0.2,0.41-0.22c0.21-0.02,0.32-0.05,0.32-0.09
		c0-0.08-0.03-0.19-0.09-0.32c-0.06-0.13-0.09-0.23-0.09-0.32c0-0.21,0.12-0.48,0.36-0.82c0.24-0.34,0.42-0.51,0.52-0.51l0.47,0.28
		v-0.19c-0.21-0.19-0.32-0.35-0.32-0.47c0-0.17,0.09-0.39,0.28-0.68s0.31-0.49,0.35-0.62l0.25-0.32c0.04,0,0.15-0.29,0.32-0.88
		c0.17-0.59,0.41-0.87,0.73-0.85v-0.32c0-0.21,0.24-0.72,0.73-1.52l1.67-2.97c0.04-0.21,0.21-0.58,0.51-1.11l-0.06-0.76
		c0-0.34,0.19-0.86,0.58-1.58c0.39-0.72,0.71-1.07,0.96-1.07c0.13,0,0.22,0.02,0.27,0.06c0.05,0.04,0.1,0.06,0.14,0.06l0.51-0.06
		l1.01,0.92c0.27,0.23,0.43,0.64,0.47,1.23l0.13,0.19c0.53,0.97,0.79,1.65,0.79,2.05c0,0.51-0.05,0.89-0.14,1.15
		c-0.09,0.26-0.42,0.57-0.96,0.93c-0.53,0.61-0.85,1.14-0.98,1.59c-0.13,0.45-0.34,0.88-0.65,1.28c-0.31,0.4-0.57,0.99-0.81,1.77
		c-0.23,0.78-0.63,1.36-1.2,1.74c-0.06,0.57-0.15,1.05-0.25,1.45v0.06c0,0.13,0.08,0.19,0.25,0.19l1.04-0.13
		c0.13,0,0.28,0.03,0.46,0.09c0.18,0.06,0.35,0.09,0.52,0.09c0.17,0,0.38-0.08,0.63-0.25h0.19c0.08,0,0.35,0.11,0.79,0.32l0.13-0.06
		c0.13-0.21,0.25-0.32,0.38-0.32l1.23,0.13l0.6-0.06c0.29-0.19,0.75-0.29,1.37-0.32c0.62-0.02,1.05-0.08,1.29-0.19
		c0.24-0.1,0.46-0.17,0.65-0.19c0.19-0.02,0.44-0.1,0.74-0.25c0.31-0.15,0.56-0.22,0.77-0.22c0.48,0,1.16-0.22,2.02-0.66
		c0.29,0.08,0.46,0.13,0.51,0.13c0.4,0,0.73-0.17,0.98-0.51c0.25-0.34,0.54-0.53,0.85-0.57l1.93-0.85c0.17-0.06,0.54-0.41,1.11-1.04
		l0.57-0.38l0.38-0.54c0-0.04,0.2-0.17,0.6-0.38c-0.08-0.04-0.15-0.1-0.19-0.19l0.69-0.79c-0.04-0.21-0.06-0.34-0.06-0.38v-0.13
		c0.21-0.32,0.43-0.55,0.65-0.69c0.22-0.15,0.33-0.24,0.33-0.28l-0.32-0.38c0.29-0.29,0.44-0.48,0.44-0.57l-0.13-0.92l0.13-1.61
		c0-0.82-0.05-1.35-0.16-1.59c-0.11-0.24-0.18-0.49-0.22-0.74c-0.4-0.78-0.96-1.42-1.67-1.93c-0.06-0.04-0.09-0.12-0.09-0.22
		l-0.06-0.32v-0.13l-1.01,0.13c-0.04,0-0.11-0.1-0.21-0.32c-0.09-0.21-0.25-0.32-0.46-0.32l-0.44,0.19h-0.06
		c-0.15,0-0.52-0.2-1.11-0.6c-0.13-0.04-0.39-0.06-0.79-0.06l-0.44-0.19c-0.13-0.08-0.23-0.13-0.32-0.13h-0.19l-0.73,0.13
		l-1.61-0.13l-0.98-0.19c-0.36,0.25-0.59,0.38-0.69,0.38c-0.08,0-0.28-0.06-0.6-0.19h-0.06l-0.95,0.13
		c-0.29,0.04-0.54,0.08-0.73,0.13h-0.19c-0.69,0-1.23-0.06-1.61-0.19h-0.19c-0.23,0-0.42,0.08-0.57,0.24
		c-0.15,0.16-0.28,0.24-0.41,0.24c-0.08,0-0.19-0.14-0.32-0.41c-0.27,0.21-0.47,0.35-0.6,0.41l-0.57-0.22
		c-0.08,0.17-0.73,0.35-1.93,0.54l-1.52,0.32l-0.25-0.06c-0.49,0.17-0.88,0.28-1.2,0.35c-0.32,0.06-0.6,0.15-0.84,0.27
		c-0.24,0.12-0.5,0.2-0.77,0.24c-0.27,0.04-0.67,0.15-1.2,0.32l-0.51-0.13c-0.4,0.23-0.98,0.51-1.74,0.82
		c-0.76,0.32-1.23,0.57-1.42,0.76c-0.19,0.19-0.37,0.28-0.54,0.28c-0.04,0-0.17-0.02-0.38-0.06h-0.06c-0.19,0-0.5,0.22-0.93,0.65
		c-0.43,0.43-0.81,0.74-1.12,0.93s-0.6,0.49-0.84,0.9c-0.24,0.41-0.8,0.71-1.66,0.9c-0.04,0.04-0.08,0.11-0.13,0.19v0.51
		c-0.34,0.19-0.64,0.56-0.92,1.11l-0.19,0.32l-0.06,0.6c0,0.63-0.08,0.97-0.25,1.01c-0.17,0.04-0.34,0.13-0.52,0.27
		c-0.18,0.14-0.35,0.21-0.52,0.21c-0.36,0-0.7-0.32-1.01-0.95s-0.47-1.01-0.47-1.14c0-1.24,0.41-2.16,1.23-2.75l2.34-1.71
		c0.78-0.57,1.44-0.85,1.99-0.85c0.17-0.08,0.35-0.28,0.54-0.6c0.19-0.32,0.62-0.55,1.29-0.69l0.51,0.19c0.04,0,0.1-0.08,0.19-0.25
		c0.08-0.17,0.22-0.31,0.39-0.41c0.18-0.1,0.33-0.24,0.46-0.41l0.82-0.54c0.04,0,0.08-0.02,0.13-0.06l0.47,0.13
		c0.04,0,0.1-0.02,0.19-0.06c0.08-0.04,0.23-0.06,0.44-0.06c0.08,0,0.15-0.1,0.19-0.32C228.09,352.48,228.2,352.42,228.35,352.4z"/>
	<path class="st1" d="M267.58,385.96l-1.49,1.29c-0.08-0.08-0.17-0.13-0.25-0.13c-0.21,0-0.47,0.19-0.77,0.57
		c-0.31,0.38-0.52,0.57-0.65,0.57l-0.32-0.06c-0.53,0.4-0.91,0.63-1.14,0.69c-0.23,0.06-0.51,0.18-0.84,0.35
		c-0.33,0.17-0.62,0.26-0.88,0.28c-0.26,0.02-0.48,0.11-0.65,0.27c-0.17,0.16-0.58,0.24-1.23,0.24l-0.51-0.06
		c-0.27,0.13-0.45,0.19-0.54,0.19c-0.17,0-0.35-0.09-0.54-0.27c-0.19-0.18-0.4-0.28-0.62-0.3c-0.22-0.02-0.45-0.17-0.68-0.44
		c-0.23-0.27-0.45-0.46-0.65-0.57c-0.2-0.1-0.36-0.25-0.49-0.44l-0.44-0.38c-0.36-0.25-0.71-0.72-1.04-1.39
		c-0.34-0.67-0.51-1.2-0.51-1.58v-0.13l0.06-0.6l-0.06-0.69c0.08-0.08,0.19-0.26,0.32-0.54v-1.01l0.76-2.53
		c0.04-0.1-0.04-0.24-0.25-0.41c-0.21,0.32-0.42,0.51-0.63,0.57c-0.21,0.06-0.35,0.21-0.43,0.44c-0.07,0.23-0.2,0.35-0.37,0.35
		l-0.38-0.13c-0.04,0.04-0.14,0.26-0.29,0.65c-0.15,0.39-0.4,0.58-0.76,0.58c-0.38,0-0.57-0.15-0.57-0.44l0.06-0.57l-0.19-0.79
		c0-0.17,0.17-0.5,0.51-0.99c0.34-0.49,0.65-0.78,0.93-0.85c0.28-0.07,0.53-0.27,0.73-0.6c0.2-0.33,0.64-0.72,1.31-1.18
		c0.38-0.08,0.71-0.36,0.98-0.82c0.29-0.23,0.68-0.42,1.15-0.57c0.47-0.15,0.83-0.36,1.08-0.65c0.24-0.28,0.96-0.73,2.15-1.33
		c1.19-0.6,2.06-0.9,2.61-0.9c0.17,0,0.4-0.05,0.7-0.14c0.29-0.09,0.57-0.18,0.82-0.25c0.25-0.07,0.52-0.19,0.79-0.35
		c0.27-0.16,0.5-0.24,0.66-0.24l0.92,0.32c0.68,0.19,1.09,0.33,1.23,0.41c0.04,0.04,0.26,0.13,0.65,0.27
		c0.39,0.14,0.79,0.32,1.2,0.55c0.41,0.23,0.62,0.66,0.62,1.29c-0.36,0.53-0.54,0.81-0.54,0.85c0,0.08,0.24,0.21,0.73,0.38
		c0.17,0.32,0.42,0.73,0.76,1.23l0.35,1.11l0.06,2.59l-0.06,0.25c-0.23,0.21-0.35,0.35-0.35,0.41l0.09,0.63l-0.25,0.88
		c-0.06,0.27-0.17,0.45-0.32,0.54c-0.15,0.08-0.24,0.19-0.28,0.32l-0.19,0.25c-0.04,0.06-0.13,0.25-0.27,0.55
		c-0.14,0.31-0.29,0.54-0.46,0.71c-0.17,0.17-0.27,0.37-0.32,0.6c-0.04,0.23-0.15,0.4-0.32,0.51c-0.17,0.11-0.29,0.22-0.36,0.33
		C267.87,385.78,267.75,385.88,267.58,385.96z M257.77,386.78l0.13,0.73l0.06,0.06h0.5l0.16,0.06c0.42,0.08,0.74,0.13,0.95,0.13
		c0.65,0,1.17-0.16,1.56-0.49c0.39-0.33,0.7-0.49,0.93-0.49c0.23,0,0.43-0.16,0.58-0.47c0.16-0.32,0.26-0.47,0.3-0.47h0.44
		l0.13-0.06c0-0.48,0.21-0.83,0.65-1.04c0.43-0.21,0.74-0.49,0.91-0.84s0.38-0.61,0.61-0.79c0.23-0.18,0.39-0.42,0.47-0.71
		l0.25-0.38c0.08-0.08,0.13-0.24,0.13-0.47l0.6-1.14c0.13-0.53,0.19-0.94,0.19-1.23c0-0.44-0.23-0.79-0.68-1.04
		c-0.45-0.25-0.68-0.75-0.68-1.48c0-0.48,0.25-0.93,0.74-1.34c0.49-0.41,0.74-0.66,0.74-0.74c0-0.13-0.06-0.19-0.19-0.19
		c-0.06,0-0.31,0.08-0.72,0.25c-0.15,0.29-0.89,0.68-2.24,1.17c-0.44-0.21-0.68-0.32-0.72-0.32c-0.13,0-0.25,0.13-0.38,0.38
		c-0.13,0.25-0.25,0.43-0.38,0.54h-0.41c-0.04,0-0.18,0.14-0.41,0.41c-0.23,0.27-0.52,0.41-0.88,0.41l-0.38,0.38
		c0.02,0.34-0.19,0.68-0.63,1.04l-0.35,0.41c-0.21,0.25-0.48,0.55-0.82,0.88l-0.57,1.42c-0.23,0.55-0.35,0.96-0.35,1.23
		c-0.06,0.13-0.21,0.26-0.43,0.39c-0.22,0.14-0.33,0.31-0.33,0.52c0,0.04,0.07,0.15,0.22,0.32c0.15,0.17,0.22,0.29,0.22,0.38
		l-0.13,0.41l-0.13,1.17L257.77,386.78z"/>
	<path class="st1" d="M276.99,376.46l0.44,0.19c0.04-0.36,0.24-0.66,0.6-0.92h0.25c0.21,0,0.49-0.28,0.82-0.85l0.54-0.32
		c0.08,0.04,0.21,0.06,0.38,0.06c0.13,0,0.25-0.08,0.36-0.25c0.12-0.17,0.41-0.49,0.87-0.98h0.13c0.13,0,0.28-0.09,0.46-0.28
		c0.18-0.19,0.42-0.28,0.71-0.28l1.08-0.28c0.34-0.08,0.53-0.13,0.57-0.13c0.19-0.06,0.65,0.32,1.39,1.15
		c0.74,0.83,1.11,1.64,1.11,2.42c0,0.44-0.23,0.71-0.69,0.79l-0.16,0.13v0.63l-0.54,1.17c-0.15,0.32-0.33,0.52-0.54,0.6
		c-0.19,0.34-0.33,0.57-0.41,0.69l-0.44,0.06l-0.19,0.19v0.79c-0.19,0.25-0.46,0.81-0.82,1.66c-0.36,0.85-0.54,1.39-0.54,1.63
		c0,0.4,0.08,0.6,0.25,0.6c0.13,0,0.25-0.05,0.38-0.16c0.13-0.1,0.3-0.23,0.52-0.36c0.22-0.14,0.38-0.28,0.49-0.43
		c0.11-0.15,0.33-0.28,0.66-0.39c0.34-0.12,0.65-0.33,0.95-0.65c0.29-0.32,0.5-0.53,0.63-0.63c0.13-0.1,0.26-0.25,0.41-0.43
		c0.15-0.18,0.24-0.27,0.28-0.27c0.13,0,0.33-0.04,0.6-0.13c0.04-0.23,0.08-0.4,0.13-0.51l0.76-0.38l1.83-1.64l0.25-0.32
		c0.34-0.08,0.55-0.15,0.63-0.19c0.17-0.57,0.45-0.98,0.85-1.23c0-0.08,0.11-0.15,0.32-0.19c0.17-0.34,0.38-0.6,0.65-0.81
		c0.26-0.2,0.48-0.45,0.65-0.74l0.72-0.6c0.21-0.08,0.36-0.21,0.44-0.38c1.09-0.97,1.77-1.52,2.03-1.66
		c0.26-0.14,0.69-0.21,1.28-0.21s1.07,0.23,1.44,0.68c0.37,0.45,0.77,0.8,1.2,1.03c0.43,0.23,0.65,0.67,0.65,1.33
		c0,0.61-0.47,1.78-1.42,3.5c-0.61,1.81-0.93,2.92-0.95,3.33c-0.02,0.41-0.12,0.65-0.28,0.71c-0.17,0.06-0.25,0.14-0.25,0.22v0.13
		c0,0.51,0.08,0.76,0.25,0.76c0.13,0,0.3-0.1,0.52-0.32c0.22-0.21,0.67-0.44,1.34-0.69l0.28,0.06c0.61-0.93,1.02-1.43,1.23-1.5
		c0.21-0.07,0.42-0.26,0.63-0.57c0.21-0.3,0.47-0.47,0.77-0.49c0.3-0.02,0.5-0.07,0.58-0.16c0.02-0.51,0.43-1.07,1.24-1.71
		c0.81-0.63,1.27-0.95,1.4-0.95c0.21,0,0.38,0.16,0.5,0.47c0.13,0.32,0.26,0.53,0.39,0.65c0.14,0.12,0.2,0.22,0.2,0.3v0.57
		c0,0.27-0.14,0.45-0.41,0.54c-0.21,0.46-0.4,0.74-0.57,0.82l-0.57-0.06c-0.11,0.13-0.19,0.24-0.27,0.35
		c-0.07,0.11-0.12,0.15-0.14,0.13c-0.17,0.04-0.47,0.32-0.9,0.84c-0.43,0.52-0.81,0.94-1.15,1.28l-0.13,0.19
		c-0.17,0.13-0.33,0.21-0.47,0.25l-0.57,0.47c-0.21-0.13-0.34-0.19-0.38-0.19c-0.04,0-0.13,0.08-0.27,0.25
		c-0.14,0.17-0.41,0.38-0.82,0.65c-0.41,0.26-0.72,0.56-0.93,0.9l-0.5,0.51l-0.66,0.09c-0.06,0-0.17,0.09-0.32,0.28l-0.57,0.73
		c-0.27,0.36-0.7,0.54-1.29,0.54c-0.13,0-0.29-0.11-0.49-0.33c-0.2-0.22-0.39-0.41-0.57-0.57c-0.18-0.16-0.58-0.63-1.2-1.42
		c-0.62-0.79-0.93-1.2-0.93-1.25l0.19-1.11l-0.06-0.76c0-0.15,0.1-0.37,0.3-0.68c0.2-0.31,0.3-0.47,0.3-0.49l-0.06-1.23
		c0.04-0.04,0.08-0.1,0.13-0.19l0.44-0.73c-0.04-0.21-0.06-0.44-0.06-0.69l0.13-1.04c-0.38,0.17-0.71,0.51-1,1.03
		c-0.28,0.52-0.66,0.77-1.12,0.77c-0.4,0.72-0.71,1.06-0.92,1.04c-0.08,0.08-0.15,0.17-0.19,0.25l-0.44,0.25l-0.54-0.06l-0.19,0.79
		c-0.46,0.25-0.76,0.48-0.9,0.68c-0.14,0.2-0.35,0.41-0.65,0.62l-0.54,0.51h-0.51c-0.08,0.57-0.41,1.04-0.98,1.42l-0.25,0.32
		l-0.57-0.06c-0.21,0.67-0.47,1.08-0.79,1.23c-0.36,0-0.85,0.33-1.47,0.98c-0.62,0.65-1.06,0.98-1.31,0.98
		c-1.83,0-3.32-1.15-4.45-3.44c-0.04-0.08-0.14-0.24-0.3-0.47c-0.16-0.23-0.24-0.59-0.24-1.07c0-0.82,0.11-1.38,0.33-1.67
		c0.22-0.29,0.51-0.85,0.85-1.66c0.35-0.81,0.6-1.16,0.77-1.06c0.04-0.08,0.06-0.21,0.06-0.38c0.34-0.4,0.51-0.7,0.51-0.92
		c0-0.08-0.04-0.13-0.13-0.13c-0.04,0-0.17,0.06-0.38,0.19l-0.44,0.19c-0.19,0.04-0.33,0.13-0.41,0.25
		c-0.09,0.13-0.23,0.25-0.44,0.36c-0.21,0.12-0.38,0.22-0.51,0.3h-0.1c-0.13-0.13-0.21-0.19-0.25-0.19
		c-0.13,0.34-0.23,0.55-0.32,0.63l-0.38,0.06c-0.47,0.48-0.76,0.73-0.89,0.73c-0.08,0-0.28-0.07-0.57-0.22
		c-0.3-0.15-0.44-0.29-0.44-0.44l0.22-1.23v-0.57c0-0.04,0.08-0.13,0.25-0.25c0.04,0,0.21-0.23,0.51-0.68
		C276.24,376.68,276.59,376.46,276.99,376.46z"/>
	<path class="st1" d="M307.56,386.21l-0.25-1.61c0-0.13,0.06-0.33,0.19-0.6c0.13,0,0.23-0.04,0.32-0.13l-0.19-0.57
		c0-0.74,0.21-1.37,0.62-1.91c0.41-0.54,0.64-0.9,0.68-1.09c0.04-0.19,0.34-0.81,0.9-1.85c0.56-1.04,0.97-1.71,1.25-2.01l0.19-0.41
		l0.25-0.06c0.48-0.78,1.17-1.48,2.05-2.12c0.29-0.46,0.65-0.84,1.07-1.14c0.42-0.29,0.71-0.51,0.85-0.63
		c0.15-0.13,0.37-0.21,0.66-0.25l0.13-0.06c0.61-0.61,1.14-0.92,1.58-0.92c0.15-0.15,0.44-0.32,0.88-0.51h0.35
		c0.13,0,0.25-0.04,0.38-0.13c0.13-0.08,0.25-0.13,0.38-0.13c0.08,0,0.3,0.08,0.66,0.25c0.34-0.34,0.61-0.51,0.82-0.51
		c0.44,0,0.89,0.17,1.34,0.51c0.45,0.34,0.74,0.75,0.87,1.23c0.13,0.48,0.23,0.77,0.32,0.85c0.08,0.08,0.17,0.19,0.25,0.32
		c0.17,0,0.39-0.39,0.66-1.17l0.38-0.51c0.57-0.74,0.96-1.6,1.18-2.59c0.04-0.04,0.11-0.22,0.19-0.52c0.08-0.31,0.31-0.83,0.67-1.56
		c0.61-0.88,1.05-1.79,1.3-2.72l0.38-0.57c0.25-0.17,0.39-0.35,0.41-0.55c0.02-0.2,0.08-0.38,0.19-0.55
		c0.1-0.17,0.23-0.37,0.36-0.62c0.14-0.24,0.25-0.4,0.33-0.49c0.08-0.08,0.21-0.37,0.38-0.87c0.17-0.49,0.37-0.77,0.62-0.84
		c0.24-0.06,0.49-0.18,0.74-0.35l0.06-0.22l-0.13-0.44c0-0.25,0.28-0.69,0.84-1.33c0.56-0.63,0.96-1.15,1.2-1.56
		c0.24-0.41,0.65-1.04,1.23-1.89c0.58-0.85,0.99-1.37,1.25-1.56l0.73-0.76c0.34-0.48,0.81-0.73,1.42-0.73
		c0.46,0,0.95,0.25,1.45,0.74c0.51,0.5,0.76,0.98,0.76,1.47c0,0.17-0.12,0.56-0.35,1.17l-0.06,0.38c0,0.34-0.12,0.74-0.35,1.2
		c-0.23,0.46-0.37,0.82-0.41,1.07l-1.77,4.33c-0.21,0.08-0.34,0.15-0.38,0.19c-0.55,1.2-0.98,1.85-1.29,1.96v0.63
		c0,0.23-0.15,0.4-0.44,0.51l-0.13,0.06c-0.19,0.8-0.43,1.38-0.73,1.74c-0.3,0.36-0.51,0.72-0.65,1.09
		c-0.14,0.37-0.35,0.57-0.65,0.62c-0.3,0.04-0.44,0.45-0.44,1.23c-0.08,0.42-0.3,0.63-0.63,0.63c-0.32,0-0.52,0.27-0.6,0.82
		c-0.08,0.55-0.5,0.84-1.23,0.88c-0.21,0.13-0.34,0.27-0.38,0.44l0.25,0.79c0,0.13-0.39,0.62-1.17,1.48l-0.25,0.82
		c-0.4,0.15-0.73,1.23-0.98,3.25l-0.38,2.18l0.06,0.85l-0.13,0.44l0.38,1.29l-0.06,0.73c0,0.34,0.13,0.51,0.38,0.51
		c0.13,0,0.41-0.19,0.85-0.57l0.44-0.19c1.32-0.67,2.14-1.33,2.46-1.96c0.08-0.08,0.24-0.17,0.46-0.25c0.22-0.08,0.38-0.2,0.49-0.35
		c0.11-0.15,0.19-0.25,0.25-0.32c1.28-0.84,2.11-1.58,2.49-2.21c0.38-0.63,0.77-1.01,1.17-1.14l0.25-0.25
		c0.25-0.21,0.46-0.32,0.63-0.32c0.36,0,0.54,0.11,0.54,0.32l-0.25,0.88c0.21,0.57,0.32,0.89,0.32,0.98c0,0.74-0.33,1.19-0.98,1.36
		c-0.27,0.27-0.49,0.59-0.65,0.95c-0.16,0.36-0.5,0.58-1.03,0.66c-0.36,0.51-0.68,0.84-0.98,0.99c-0.29,0.16-0.44,0.32-0.44,0.49
		v0.28c-0.17,0.25-0.32,0.42-0.44,0.51l-0.6-0.13c-0.08,0.25-0.27,0.6-0.57,1.04c-0.11-0.08-0.2-0.13-0.28-0.13
		c-0.29,0-0.54,0.18-0.73,0.54c-0.19,0.36-0.33,0.54-0.41,0.54h-0.73c-0.11,0.06-0.27,0.2-0.51,0.41c-0.23,0.21-0.62,0.32-1.17,0.32
		l-0.98,0.19c-0.93,0-1.78-0.3-2.56-0.9c-0.78-0.6-1.2-1.15-1.25-1.64c-0.05-0.49-0.23-1.09-0.52-1.78l-0.06-1.29
		c-0.23-1.35-0.5-2.02-0.79-2.02l-0.06,0.41l-0.25,0.13c-0.13,0.65-0.34,0.98-0.63,0.98c-0.13,0.06-0.26,0.17-0.41,0.32l-0.19,0.13
		c-0.08,0.04-0.21,0.22-0.36,0.54c-0.16,0.32-0.6,0.76-1.31,1.33c-0.29,0.78-0.52,1.17-0.66,1.17l-0.38-0.25h-0.06
		c-0.17,0-0.31,0.25-0.41,0.74c-0.11,0.5-0.32,0.74-0.63,0.74c-0.08,0-0.16,0.14-0.24,0.43s-0.26,0.46-0.55,0.54
		c-0.29,0.07-0.56,0.36-0.79,0.87c-0.23,0.51-0.39,0.76-0.47,0.76c-0.04,0-0.11-0.02-0.19-0.06l-0.54,0.13
		c-0.11,0.15-0.25,0.39-0.44,0.73c-0.19,0.06-0.36,0.15-0.51,0.25c-0.65,0.63-1.52,0.95-2.59,0.95c-0.76,0-1.36-0.16-1.8-0.49
		c-0.44-0.33-0.71-0.6-0.79-0.84c-0.08-0.23-0.24-0.52-0.47-0.87C307.77,387.15,307.62,386.72,307.56,386.21z M320.17,379.05
		l0.22-0.41c0.36-0.13,0.59-0.44,0.7-0.95c0.17-0.13,0.6-0.67,1.3-1.64c0.69-0.97,1.04-1.5,1.04-1.61
		c-0.21-0.21-0.45-0.32-0.73-0.32c-0.04,0-0.17,0.04-0.38,0.13c-0.21,0.08-0.43,0.15-0.65,0.19c-0.22,0.04-0.46,0.13-0.71,0.25
		l-0.79-0.13c-0.23,0-0.75,0.31-1.55,0.92l-0.73-0.13c-0.13,0-0.34,0.27-0.63,0.82l-1.61,1.29h-0.19c-0.29,0-0.5,0.26-0.6,0.79
		c-0.36,0.46-0.7,0.78-1.01,0.96c-0.32,0.18-0.54,0.44-0.66,0.77v0.41c-0.59,0.65-0.88,1.15-0.88,1.48
		c-0.44,0.42-0.73,0.87-0.87,1.36c-0.14,0.48-0.3,0.89-0.49,1.23c0.08,0.29,0.15,0.66,0.19,1.09c0.04,0.43,0.25,0.65,0.63,0.65
		c0.61,0,1.29-0.37,2.02-1.11c0.04-0.04,0.22-0.16,0.54-0.35c0.32-0.19,0.75-0.56,1.31-1.12c0.56-0.56,0.87-0.85,0.93-0.87
		c0.21-0.21,0.34-0.32,0.38-0.32l0.25-0.25c0-0.08,0.09-0.18,0.27-0.28c0.18-0.1,0.42-0.32,0.71-0.65c0.29-0.33,0.52-0.52,0.68-0.58
		c0.16-0.06,0.27-0.15,0.33-0.27c0.06-0.12,0.17-0.23,0.32-0.33c0.15-0.1,0.22-0.22,0.22-0.35l0.06-0.38L320.17,379.05z
		 M331.12,366.23l-0.32,0.92c0.27-0.04,0.52-0.33,0.73-0.85c0.63-0.9,1.06-1.46,1.29-1.67c0.27,0,0.48-0.17,0.62-0.52
		s0.38-0.69,0.74-1.03c0-0.15,0.16-0.43,0.47-0.85c0.32-0.42,0.52-0.72,0.62-0.9c0.09-0.18,0.29-0.42,0.58-0.71
		c0.29-0.29,0.57-0.8,0.84-1.52c0.26-0.72,0.49-1.15,0.68-1.29c0.19-0.15,0.28-0.44,0.28-0.88c0-0.61-0.04-0.92-0.13-0.92
		c-0.19,0-0.33,0.12-0.43,0.36c-0.09,0.24-0.3,0.55-0.62,0.93l-1.07,1.8c-0.42,0.72-0.7,1.28-0.84,1.71
		c-0.14,0.42-0.29,0.67-0.47,0.74c-0.18,0.07-0.39,0.28-0.65,0.62l-0.44,0.44c-0.11,0.25-0.19,0.56-0.25,0.92l-0.28,0.25v0.6
		c0,0.27-0.16,0.52-0.47,0.74c-0.32,0.22-0.47,0.36-0.47,0.43L331.12,366.23z"/>
	<path class="st1" d="M337.93,376.46l0.44,0.19c0.04-0.36,0.24-0.66,0.6-0.92h0.25c0.21,0,0.49-0.28,0.82-0.85l0.54-0.32
		c0.08,0.04,0.21,0.06,0.38,0.06c0.13,0,0.25-0.08,0.36-0.25c0.12-0.17,0.41-0.49,0.87-0.98h0.13c0.13,0,0.28-0.09,0.46-0.28
		c0.18-0.19,0.42-0.28,0.71-0.28l1.08-0.28c0.34-0.08,0.53-0.13,0.57-0.13c0.19-0.06,0.65,0.32,1.39,1.15
		c0.74,0.83,1.11,1.64,1.11,2.42c0,0.44-0.23,0.71-0.69,0.79l-0.16,0.13v0.63l-0.54,1.17c-0.15,0.32-0.33,0.52-0.54,0.6
		c-0.19,0.34-0.33,0.57-0.41,0.69l-0.44,0.06l-0.19,0.19v0.79c-0.19,0.25-0.46,0.81-0.82,1.66c-0.36,0.85-0.54,1.39-0.54,1.63
		c0,0.4,0.08,0.6,0.25,0.6c0.13,0,0.25-0.05,0.38-0.16c0.13-0.1,0.3-0.23,0.52-0.36c0.22-0.14,0.38-0.28,0.49-0.43
		c0.1-0.15,0.33-0.28,0.66-0.39c0.34-0.12,0.65-0.33,0.95-0.65c0.29-0.32,0.51-0.53,0.63-0.63c0.13-0.1,0.26-0.25,0.41-0.43
		c0.15-0.18,0.24-0.27,0.28-0.27c0.13,0,0.33-0.04,0.6-0.13c0.04-0.23,0.08-0.4,0.13-0.51l0.76-0.38l1.83-1.64l0.25-0.32
		c0.34-0.08,0.55-0.15,0.63-0.19c0.17-0.57,0.45-0.98,0.85-1.23c0-0.08,0.11-0.15,0.32-0.19c0.17-0.34,0.38-0.6,0.65-0.81
		c0.26-0.2,0.48-0.45,0.65-0.74l0.73-0.6c0.21-0.08,0.36-0.21,0.44-0.38c1.09-0.97,1.77-1.52,2.04-1.66
		c0.26-0.14,0.69-0.21,1.28-0.21c0.59,0,1.07,0.23,1.44,0.68c0.37,0.45,0.77,0.8,1.2,1.03c0.43,0.23,0.65,0.67,0.65,1.33
		c0,0.61-0.47,1.78-1.42,3.5c-0.61,1.81-0.93,2.92-0.95,3.33c-0.02,0.41-0.12,0.65-0.28,0.71c-0.17,0.06-0.25,0.14-0.25,0.22v0.13
		c0,0.51,0.08,0.76,0.25,0.76c0.13,0,0.3-0.1,0.52-0.32c0.22-0.21,0.67-0.44,1.34-0.69l0.28,0.06c0.61-0.93,1.02-1.43,1.23-1.5
		c0.21-0.07,0.42-0.26,0.63-0.57c0.21-0.3,0.47-0.47,0.77-0.49c0.3-0.02,0.5-0.07,0.58-0.16c0.02-0.51,0.43-1.07,1.24-1.71
		c0.81-0.63,1.27-0.95,1.4-0.95c0.21,0,0.38,0.16,0.5,0.47c0.13,0.32,0.26,0.53,0.39,0.65c0.14,0.12,0.2,0.22,0.2,0.3v0.57
		c0,0.27-0.14,0.45-0.41,0.54c-0.21,0.46-0.4,0.74-0.57,0.82l-0.57-0.06c-0.11,0.13-0.19,0.24-0.27,0.35
		c-0.07,0.11-0.12,0.15-0.14,0.13c-0.17,0.04-0.47,0.32-0.9,0.84c-0.43,0.52-0.81,0.94-1.15,1.28l-0.13,0.19
		c-0.17,0.13-0.33,0.21-0.47,0.25l-0.57,0.47c-0.21-0.13-0.34-0.19-0.38-0.19c-0.04,0-0.13,0.08-0.27,0.25
		c-0.14,0.17-0.41,0.38-0.82,0.65c-0.41,0.26-0.72,0.56-0.93,0.9l-0.5,0.51l-0.66,0.09c-0.06,0-0.17,0.09-0.32,0.28l-0.57,0.73
		c-0.27,0.36-0.7,0.54-1.29,0.54c-0.13,0-0.29-0.11-0.49-0.33c-0.2-0.22-0.39-0.41-0.57-0.57c-0.18-0.16-0.58-0.63-1.2-1.42
		c-0.62-0.79-0.93-1.2-0.93-1.25l0.19-1.11l-0.06-0.76c0-0.15,0.1-0.37,0.3-0.68c0.2-0.31,0.3-0.47,0.3-0.49l-0.06-1.23
		c0.04-0.04,0.08-0.1,0.13-0.19l0.44-0.73c-0.04-0.21-0.06-0.44-0.06-0.69l0.13-1.04c-0.38,0.17-0.71,0.51-1,1.03
		c-0.28,0.52-0.66,0.77-1.12,0.77c-0.4,0.72-0.71,1.06-0.92,1.04c-0.08,0.08-0.15,0.17-0.19,0.25l-0.44,0.25l-0.54-0.06l-0.19,0.79
		c-0.46,0.25-0.76,0.48-0.9,0.68c-0.14,0.2-0.35,0.41-0.65,0.62l-0.54,0.51H349c-0.08,0.57-0.41,1.04-0.98,1.42l-0.25,0.32
		l-0.57-0.06c-0.21,0.67-0.47,1.08-0.79,1.23c-0.36,0-0.85,0.33-1.47,0.98c-0.62,0.65-1.06,0.98-1.31,0.98
		c-1.83,0-3.32-1.15-4.45-3.44c-0.04-0.08-0.14-0.24-0.3-0.47c-0.16-0.23-0.24-0.59-0.24-1.07c0-0.82,0.11-1.38,0.33-1.67
		c0.22-0.29,0.51-0.85,0.85-1.66c0.35-0.81,0.6-1.16,0.77-1.06c0.04-0.08,0.06-0.21,0.06-0.38c0.34-0.4,0.51-0.7,0.51-0.92
		c0-0.08-0.04-0.13-0.13-0.13c-0.04,0-0.17,0.06-0.38,0.19l-0.44,0.19c-0.19,0.04-0.33,0.13-0.41,0.25
		c-0.08,0.13-0.23,0.25-0.44,0.36c-0.21,0.12-0.38,0.22-0.51,0.3h-0.09c-0.13-0.13-0.21-0.19-0.25-0.19
		c-0.13,0.34-0.23,0.55-0.32,0.63l-0.38,0.06c-0.47,0.48-0.76,0.73-0.89,0.73c-0.09,0-0.28-0.07-0.57-0.22
		c-0.3-0.15-0.44-0.29-0.44-0.44l0.22-1.23v-0.57c0-0.04,0.08-0.13,0.25-0.25c0.04,0,0.21-0.23,0.51-0.68
		C337.18,376.68,337.53,376.46,337.93,376.46z"/>
	<path class="st1" d="M394.97,383.06h0.13l0.32,0.13c0.04,0,0.08-0.02,0.13-0.06c0-0.36,0.17-0.66,0.51-0.92
		c0.11-0.4,0.34-0.7,0.71-0.92c0.37-0.21,0.95-0.56,1.76-1.04l0.79-0.69l0.38-0.19l0.25-0.32c0.23-0.27,0.45-0.41,0.66-0.41
		c0.32,0,0.47,0.12,0.47,0.35l-0.28,0.63l0.13,1.04c0,0.38-0.13,0.72-0.4,1.01c-0.26,0.29-0.67,0.73-1.22,1.29l-1.61,1.71
		l-0.85,0.44c-0.21,0.13-0.4,0.27-0.57,0.44l-1.23,1.04c0,0.29-0.09,0.52-0.28,0.66h-0.51l-0.25,0.13c-0.15,0.4-0.58,0.79-1.3,1.17
		l-0.44,0.32c-0.15,0.13-0.28,0.19-0.41,0.19l-0.89-0.13l-0.6,0.13c-0.17,0-0.4-0.08-0.68-0.25c-0.28-0.17-0.57-0.3-0.87-0.39
		c-0.29-0.09-0.67-0.48-1.12-1.17c-0.45-0.68-0.7-1.13-0.74-1.34c0-0.08-0.05-0.23-0.14-0.43c-0.09-0.2-0.14-0.32-0.14-0.36
		c0-0.04,0.09-0.25,0.28-0.63v-0.06c0-0.06-0.06-0.21-0.17-0.44c-0.12-0.23-0.17-0.52-0.17-0.85c0-0.19-0.06-0.43-0.19-0.73
		c0.17-0.17,0.25-0.29,0.25-0.38c0-0.08-0.03-0.21-0.09-0.36c-0.06-0.16-0.09-0.28-0.09-0.36l0.19-1.55l-0.13-0.79l0.06-0.76
		c0-0.44-0.19-0.66-0.57-0.66c-0.17,0-0.38,0.12-0.63,0.35l-0.22,0.06c-0.57,0.27-0.96,0.5-1.2,0.68c-0.23,0.18-0.47,0.27-0.72,0.27
		c-0.13,0.13-0.37,0.24-0.72,0.35l-0.25,0.19c-0.08,0.08-0.25,0.21-0.5,0.38c0,0.06-0.39,0.42-1.18,1.06
		c-0.79,0.64-1.49,1.25-2.12,1.82c-0.63,0.57-1.09,0.88-1.37,0.93c-0.28,0.05-0.42,0.32-0.42,0.81c0,0.08-0.19,0.25-0.57,0.51
		c-0.04,0-0.26,0.23-0.66,0.69c-0.34-0.25-0.52-0.38-0.57-0.38c-0.27,0-0.47,0.35-0.6,1.04c-0.13,0.27-0.46,0.44-1.01,0.51
		c-0.04,0.02-0.12,0.18-0.22,0.47l-0.13,0.13h-0.32c-0.04,0-0.19,0.12-0.44,0.36c-0.25,0.24-0.47,0.39-0.66,0.46
		c-0.27,0.57-0.51,0.85-0.7,0.85c-0.09,0-0.21-0.04-0.36-0.13c-0.16-0.08-0.35-0.16-0.59-0.22c-0.23-0.06-0.49-0.32-0.77-0.77
		c-0.28-0.45-0.43-0.84-0.43-1.15c0-2.34,0.45-3.61,1.36-3.82l0.06-0.13v-0.25c0-0.27,0.12-0.47,0.36-0.58
		c0.24-0.12,0.49-0.35,0.74-0.69s0.42-0.54,0.51-0.58h0.41c0.08,0,0.13-0.22,0.13-0.66c0-0.13,0.05-0.24,0.16-0.35
		c0.11-0.1,0.17-0.26,0.19-0.46c0.02-0.2,0.17-0.53,0.46-0.98c0.28-0.45,0.43-0.72,0.43-0.81l-0.06-0.13
		c-0.53,0.48-0.9,0.75-1.14,0.79c-0.23,0.04-0.55,0.35-0.95,0.92l-0.51-0.09c-0.88,0.65-1.43,1.02-1.64,1.11
		c-0.21,0.08-0.44,0.33-0.7,0.73c0,0.13-0.07,0.21-0.22,0.25c-0.15,0.04-0.42,0.21-0.82,0.51h-0.19c-0.53,0-0.79-0.38-0.79-1.14
		l0.66-1.8c0.19-0.57,0.64-1.05,1.34-1.44c0.7-0.39,1.3-0.76,1.78-1.12c0.48-0.36,0.97-0.55,1.45-0.57l0.22-0.32
		c0.71-0.27,1.2-0.7,1.45-1.29c0.25-0.59,0.6-0.88,1.04-0.88c1.16,0,2.04,0.43,2.65,1.28c0.61,0.85,0.92,1.53,0.92,2.04l0.06,0.85
		c0,0.29-0.06,0.71-0.19,1.23c-0.25,0.38-0.38,0.66-0.38,0.85c0,0.17,0.11,0.25,0.32,0.25c0.13,0,0.29-0.09,0.5-0.27
		c0.21-0.18,0.45-0.34,0.71-0.49c0.26-0.15,0.42-0.27,0.46-0.38c0.21-0.51,0.58-0.85,1.1-1.04c0.53-0.19,0.85-0.35,0.98-0.47
		l0.32-0.25l0.25-0.47c0.57-0.25,0.95-0.48,1.14-0.69c0.19-0.21,0.44-0.35,0.76-0.41c0.32-0.06,0.67-0.25,1.07-0.57l0.47-0.13
		l0.44-0.25c0.04-0.04,0.17-0.09,0.38-0.16c0.21-0.06,0.52-0.17,0.93-0.33c0.41-0.16,0.69-0.24,0.84-0.24
		c1.07,0,1.92,0.43,2.54,1.29c0.62,0.86,0.93,1.56,0.93,2.08l-0.06,0.57l0.13,0.85v0.13l-0.25,1.74l0.06,0.6
		c0,0.99-0.21,1.67-0.63,2.05c-0.11,0.04-0.16,0.15-0.16,0.32v0.28l0.63,1.33c0.19,0.46,0.34,0.69,0.44,0.69l1.01-0.28
		c0.29-0.08,0.54-0.3,0.73-0.66c0.17-0.08,0.46-0.34,0.89-0.76C394.49,383.23,394.69,383.06,394.97,383.06z"/>
</g>
<g>
	<path class="st1" d="M405.82,352.72c0.64-1.09,1.49-1.95,2.56-2.58c1.07-0.64,2.26-0.95,3.55-0.95c1.29,0,2.48,0.32,3.57,0.95
		c1.09,0.64,1.95,1.5,2.58,2.58c0.63,1.09,0.95,2.28,0.95,3.57c0,1.29-0.32,2.48-0.95,3.55c-0.64,1.07-1.5,1.93-2.58,2.56
		c-1.09,0.64-2.28,0.95-3.57,0.95c-1.29,0-2.48-0.32-3.55-0.95c-1.07-0.63-1.93-1.49-2.56-2.56c-0.64-1.07-0.95-2.26-0.95-3.55
		C404.86,355,405.18,353.81,405.82,352.72z M407.36,358.94c0.46,0.82,1.1,1.47,1.91,1.96c0.81,0.49,1.7,0.73,2.67,0.73
		c0.97,0,1.86-0.24,2.67-0.71c0.81-0.47,1.45-1.12,1.92-1.94c0.47-0.82,0.71-1.72,0.71-2.69c0-0.99-0.24-1.89-0.71-2.7
		c-0.47-0.81-1.11-1.45-1.92-1.92c-0.81-0.47-1.7-0.71-2.67-0.71c-0.95,0-1.83,0.23-2.63,0.69c-0.81,0.46-1.45,1.1-1.92,1.91
		c-0.47,0.81-0.71,1.7-0.71,2.67C406.66,357.22,406.9,358.12,407.36,358.94z M409.3,360.07v-7.66h3.08c0.88,0,1.55,0.21,2.01,0.64
		c0.46,0.43,0.69,1,0.69,1.72c0,0.55-0.13,1.02-0.4,1.4c-0.27,0.38-0.64,0.65-1.13,0.81l2.04,3.08h-2.01l-1.8-2.95h-0.76v2.95H409.3
		z M412.07,355.67c0.42,0,0.73-0.07,0.95-0.23c0.22-0.15,0.33-0.36,0.33-0.64c0-0.6-0.43-0.9-1.28-0.9h-1.04v1.77H412.07z"/>
</g>
</svg>
