<svg id="图层_1" data-name="图层 1" xmlns="http://www.w3.org/2000/svg" viewBox="0 0 409.2 396.14"><defs><style>.cls-1{fill:#231815;}</style></defs><path class="cls-1" d="M163.1,264.75l.26-.31a.86.86,0,0,1,.63-.37,2.55,2.55,0,0,0,.79-.23l4.64-1.3a12.79,12.79,0,0,1,1.64-.25l1-.32a3,3,0,0,1,1.17-.19l1-.22c.09,0,.16.08.22.24s.12.24.16.24a5.27,5.27,0,0,1,1.9-1h.06l.76.19a.64.64,0,0,0,.41-.25l.12-.13a5.68,5.68,0,0,0,.76.31,3.74,3.74,0,0,0,1.07-.18,3.68,3.68,0,0,1,1.14-.19l1,.06,2.18-.13a.69.69,0,0,1,.41.19l.63-.12a6.66,6.66,0,0,1,1.82.25,13.27,13.27,0,0,0,2.16.38,2.52,2.52,0,0,1,1.83.85l.54.19h.38a.88.88,0,0,1,1,.66,2.06,2.06,0,0,0,.75.76l.41.66a1.31,1.31,0,0,0-.06.38c0,.13.23.28.7.44l.12.07a1.94,1.94,0,0,0,.6,1.09,3.42,3.42,0,0,1,.57,2.29v.75l.13,1.65a10.71,10.71,0,0,1-1,4,8.81,8.81,0,0,1-2.1,3.31c-.17.57-.37.86-.6.86-.73.67-1.21,1-1.42,1a.64.64,0,0,1-.19-.07,3.51,3.51,0,0,1-1.37,1.33,8.39,8.39,0,0,1-1.25.66c-.19.06-.67.24-1.45.54l-.76-.19a1.77,1.77,0,0,1-.66.47l-1.67.7a14.05,14.05,0,0,1-2.78.57l-.79-.26q-.19,0-.57.48l-.6.12a2.57,2.57,0,0,0-1.23-.28,1.43,1.43,0,0,1-.73.28l-1.39.19c-.16,0-.27-.16-.31-.47l-.28.09-.13.45a.73.73,0,0,1-.32.06l-1.67-.19-.79.19-1.29-.25-.63.06-.54-.25-.51.06-.5-.13-.6.13-.13-.06a1.3,1.3,0,0,1-.31.41,2.67,2.67,0,0,0-.51.66,2.54,2.54,0,0,0-.91,1.45,1.15,1.15,0,0,1-1.11.95,2.6,2.6,0,0,1-.19.32,1.74,1.74,0,0,1,.19.53v.13c0,.5-.41,1-1.23,1.55a6,6,0,0,1-.46,1.64,4.06,4.06,0,0,0-.36.83.92.92,0,0,1-.54.56l-.12.19v.91a1.83,1.83,0,0,1-.19.4q-.19.33-.54,1l-.19.32-.25,1a1.41,1.41,0,0,0-.63,1.23l.06,1.8a1.39,1.39,0,0,1-.62,1,1.94,1.94,0,0,1-1.21.5c-1,0-1.74-.62-2.12-1.86l-.19-.25a2,2,0,0,1-.66-1.61,9.16,9.16,0,0,1,1.29-3.7l2.08-3.75a5.31,5.31,0,0,1,.83-.57l.34.12a.24.24,0,0,0,.13-.25,9.83,9.83,0,0,0-.35-.92v-.12a.31.31,0,0,1,.22-.32l.26-.28-.07-.63a3.82,3.82,0,0,0,.6-1.11l.32-.72c.21-.49.38-.74.5-.76a2.24,2.24,0,0,1,.76-1.86l.25-.54a.47.47,0,0,1,.42-.22c.21,0,.31-.06.31-.1a.74.74,0,0,0-.09-.31.68.68,0,0,1-.1-.32,1.58,1.58,0,0,1,.36-.82c.25-.34.42-.51.53-.51l.47.29v-.19c-.21-.19-.32-.35-.32-.47a1.37,1.37,0,0,1,.29-.68A3.73,3.73,0,0,0,165,279l.25-.31a3.23,3.23,0,0,0,.31-.89c.17-.59.41-.87.73-.85v-.32a4.57,4.57,0,0,1,.73-1.51l1.67-3a4.58,4.58,0,0,1,.51-1.11l-.07-.75a3.88,3.88,0,0,1,.59-1.58q.59-1.08,1-1.08a.44.44,0,0,1,.27.07.24.24,0,0,0,.14.06l.51-.06,1,.91a1.73,1.73,0,0,1,.47,1.23l.13.19a5.48,5.48,0,0,1,.79,2.06,3.4,3.4,0,0,1-.15,1.15,2.33,2.33,0,0,1-1,.93,4.49,4.49,0,0,0-1,1.59,3.53,3.53,0,0,1-.65,1.28,5.67,5.67,0,0,0-.8,1.77,3,3,0,0,1-1.2,1.74,10.51,10.51,0,0,1-.25,1.45V282c0,.13.08.19.25.19l1-.12a1.48,1.48,0,0,1,.46.09,1.41,1.41,0,0,0,.52.1A1.22,1.22,0,0,0,172,282h.19a3.55,3.55,0,0,1,.79.32l.13-.06c.12-.21.25-.32.38-.32l1.23.13.6-.07a2.74,2.74,0,0,1,1.37-.31,4.19,4.19,0,0,0,1.3-.19,2.06,2.06,0,0,1,.64-.19,2.56,2.56,0,0,0,.74-.25,1.86,1.86,0,0,1,.78-.22,5,5,0,0,0,2-.67,2.88,2.88,0,0,0,.51.13,1.16,1.16,0,0,0,1-.51,1.32,1.32,0,0,1,.86-.56l1.92-.86a4.84,4.84,0,0,0,1.11-1l.57-.38.37-.53c0-.05.21-.17.6-.38a.47.47,0,0,1-.18-.19l.69-.79a3.36,3.36,0,0,1-.06-.38v-.13a2.54,2.54,0,0,1,.64-.69c.23-.15.34-.24.34-.29l-.32-.38c.29-.29.44-.48.44-.56l-.12-.92.12-1.61a4.76,4.76,0,0,0-.16-1.59,4,4,0,0,1-.22-.75,5.23,5.23,0,0,0-1.67-1.92.26.26,0,0,1-.1-.22l-.06-.32v-.13l-1,.13s-.11-.1-.2-.31a.47.47,0,0,0-.46-.32l-.44.19h-.07a3.41,3.41,0,0,1-1.1-.6,3.26,3.26,0,0,0-.79-.06l-.44-.19a.61.61,0,0,0-.32-.13h-.19l-.73.13L181,263.9l-1-.19a1.91,1.91,0,0,1-.69.38,2.11,2.11,0,0,1-.6-.19h-.06l-1,.13-.73.12h-.19a5.23,5.23,0,0,1-1.61-.19H175a.75.75,0,0,0-.57.24.58.58,0,0,1-.41.24c-.08,0-.19-.14-.31-.41a6.63,6.63,0,0,1-.6.41l-.57-.22c-.09.16-.73.34-1.93.53l-1.51.32-.26-.06a9.75,9.75,0,0,1-1.2.34,4.26,4.26,0,0,0-.83.27,2.62,2.62,0,0,1-.78.24,9.73,9.73,0,0,0-1.2.31l-.5-.12a16.79,16.79,0,0,1-1.74.82,5,5,0,0,0-1.42.76.79.79,0,0,1-.54.28l-.38-.06h-.06c-.19,0-.5.21-.93.64a6.15,6.15,0,0,1-1.12.94,2.45,2.45,0,0,0-.84.9,2.43,2.43,0,0,1-1.66.9.7.7,0,0,0-.12.18v.51a2.46,2.46,0,0,0-.92,1.11l-.19.31-.06.6c0,.63-.09,1-.26,1a1.44,1.44,0,0,0-.52.27.85.85,0,0,1-.52.21c-.36,0-.69-.32-1-.95a4.64,4.64,0,0,1-.47-1.14,3.16,3.16,0,0,1,1.23-2.75l2.34-1.7a3.6,3.6,0,0,1,2-.85,1.71,1.71,0,0,0,.53-.6,1.92,1.92,0,0,1,1.3-.7l.5.19s.11-.08.19-.25a1,1,0,0,1,.4-.41,1.47,1.47,0,0,0,.45-.41l.83-.54a.17.17,0,0,0,.12-.06l.48.12a.46.46,0,0,0,.18-.06,1.21,1.21,0,0,1,.45-.06c.08,0,.14-.11.19-.32A.53.53,0,0,1,163.1,264.75Z"/><path class="cls-1" d="M202.33,298.32l-1.48,1.29a.39.39,0,0,0-.26-.12c-.21,0-.46.18-.77.56s-.52.57-.65.57l-.31-.06a4.14,4.14,0,0,1-1.14.69,5.08,5.08,0,0,0-.84.35,2.34,2.34,0,0,1-.88.28,1.13,1.13,0,0,0-.65.27,2,2,0,0,1-1.23.24l-.51-.06a1.9,1.9,0,0,1-.54.19.82.82,0,0,1-.53-.27,1,1,0,0,0-.62-.3,1.09,1.09,0,0,1-.68-.44,2.15,2.15,0,0,0-.65-.57,1.38,1.38,0,0,1-.49-.44l-.44-.38a3.82,3.82,0,0,1-1-1.39,3.89,3.89,0,0,1-.51-1.58V297l.07-.6-.07-.69a2,2,0,0,0,.32-.54v-1l.76-2.53c0-.1-.05-.24-.26-.41a1.26,1.26,0,0,1-.63.57.65.65,0,0,0-.43.44c-.07.24-.19.35-.36.35l-.39-.12a3.5,3.5,0,0,0-.28.64.8.8,0,0,1-.77.59q-.57,0-.57-.45l.07-.56-.2-.79a2.53,2.53,0,0,1,.51-1,1.94,1.94,0,0,1,.93-.85,1.2,1.2,0,0,0,.73-.6,4.63,4.63,0,0,1,1.31-1.18,1.59,1.59,0,0,0,1-.82,3.31,3.31,0,0,1,1.16-.57,2.3,2.3,0,0,0,1.07-.65,8.84,8.84,0,0,1,2.15-1.33,6.93,6.93,0,0,1,2.61-.9,2.25,2.25,0,0,0,.7-.14l.82-.25a3.19,3.19,0,0,0,.79-.35,1.47,1.47,0,0,1,.67-.24l.92.32a8.47,8.47,0,0,1,1.23.41,3.37,3.37,0,0,0,.65.27,7.91,7.91,0,0,1,1.2.55,1.36,1.36,0,0,1,.62,1.3,5.84,5.84,0,0,0-.54.85c0,.08.24.21.73.38a14.25,14.25,0,0,0,.76,1.23l.34,1.1.07,2.59-.07.26c-.23.21-.34.34-.34.41l.09.63-.25.88a.81.81,0,0,1-.32.54.55.55,0,0,0-.28.31l-.19.26a5.48,5.48,0,0,0-.27.55,2.36,2.36,0,0,1-.46.71,1.17,1.17,0,0,0-.32.6.72.72,0,0,1-.31.51,1,1,0,0,0-.36.33A1.05,1.05,0,0,1,202.33,298.32Zm-9.81.82.13.72.06.07h.5l.16.06a4.91,4.91,0,0,0,.95.13,2.39,2.39,0,0,0,1.56-.49,1.61,1.61,0,0,1,.93-.49c.23,0,.42-.16.58-.48s.26-.47.3-.47h.44l.12-.06a1.07,1.07,0,0,1,.65-1,1.88,1.88,0,0,0,.91-.84,2.34,2.34,0,0,1,.62-.79,1.34,1.34,0,0,0,.47-.71l.25-.38a.63.63,0,0,0,.13-.47l.6-1.14a6.17,6.17,0,0,0,.19-1.23,1.16,1.16,0,0,0-.68-1,1.57,1.57,0,0,1-.68-1.49,1.76,1.76,0,0,1,.74-1.34c.5-.41.74-.66.74-.74a.17.17,0,0,0-.19-.19,3.87,3.87,0,0,0-.72.25c-.15.3-.89.69-2.24,1.17a5.74,5.74,0,0,0-.72-.32c-.13,0-.25.13-.38.38a1.67,1.67,0,0,1-.38.54h-.41s-.18.14-.41.41a1.1,1.1,0,0,1-.88.41l-.38.38a1.33,1.33,0,0,1-.63,1l-.34.41c-.21.25-.49.55-.82.89l-.57,1.42a3.54,3.54,0,0,0-.35,1.23,1.07,1.07,0,0,1-.42.39.62.62,0,0,0-.34.52s.08.15.23.32.22.29.22.38l-.13.41-.13,1.17Z"/><path class="cls-1" d="M211.75,288.81l.44.19a1.31,1.31,0,0,1,.61-.91h.25c.21,0,.49-.29.82-.86l.54-.31a.94.94,0,0,0,.38.06.47.47,0,0,0,.37-.25,8.39,8.39,0,0,1,.87-1h.13a.73.73,0,0,0,.46-.28.93.93,0,0,1,.71-.29l1.08-.28a4.55,4.55,0,0,1,.57-.13c.19-.06.65.32,1.39,1.15a3.77,3.77,0,0,1,1.1,2.42.74.74,0,0,1-.69.79l-.16.12v.64l-.54,1.16a1,1,0,0,1-.53.6c-.19.34-.33.57-.41.7l-.45.06-.19.19v.79a9.49,9.49,0,0,0-.82,1.66,6.21,6.21,0,0,0-.53,1.63c0,.4.08.59.25.59a.61.61,0,0,0,.38-.15,4,4,0,0,1,.52-.37,1.61,1.61,0,0,0,.49-.42,1.31,1.31,0,0,1,.66-.4,2.35,2.35,0,0,0,1-.64,7.7,7.7,0,0,1,.63-.64,3.31,3.31,0,0,0,.41-.42c.15-.18.24-.27.28-.27a2.09,2.09,0,0,0,.6-.13,2.64,2.64,0,0,1,.13-.5l.76-.38,1.83-1.64.25-.32a3.92,3.92,0,0,0,.63-.19,2.07,2.07,0,0,1,.85-1.23c0-.08.11-.15.32-.19a2.14,2.14,0,0,1,.64-.8,2.35,2.35,0,0,0,.65-.75l.73-.6a.82.82,0,0,0,.44-.37,16.32,16.32,0,0,1,2-1.66,2.91,2.91,0,0,1,1.28-.21,1.78,1.78,0,0,1,1.44.68,3.84,3.84,0,0,0,1.2,1,1.36,1.36,0,0,1,.64,1.32,9.68,9.68,0,0,1-1.42,3.51,19.06,19.06,0,0,0-.94,3.33c0,.41-.12.65-.29.71s-.25.14-.25.22v.13c0,.5.08.76.25.76s.3-.11.52-.32a4.47,4.47,0,0,1,1.34-.7l.29.07c.6-.93,1-1.43,1.22-1.5a1.42,1.42,0,0,0,.63-.57,1,1,0,0,1,.77-.49,1,1,0,0,0,.59-.16c0-.5.43-1.07,1.24-1.7a5.55,5.55,0,0,1,1.4-.95c.21,0,.37.16.5.47a1.74,1.74,0,0,0,.39.65q.21.18.21.3v.57a.53.53,0,0,1-.41.54,1.79,1.79,0,0,1-.57.82l-.56-.07c-.11.13-.2.25-.27.35s-.12.15-.15.13-.46.32-.89.83-.82.95-1.15,1.28l-.13.19a1.6,1.6,0,0,1-.47.26l-.57.47A1.19,1.19,0,0,0,237,297s-.13.08-.26.25a3.64,3.64,0,0,1-.82.65,2.87,2.87,0,0,0-.93.9l-.51.5-.66.1c-.06,0-.17.09-.31.28l-.57.73a1.52,1.52,0,0,1-1.29.54c-.13,0-.29-.11-.49-.34a5.91,5.91,0,0,0-.57-.56,16.31,16.31,0,0,1-1.2-1.42,12.72,12.72,0,0,1-.93-1.25l.19-1.11-.06-.75a1.46,1.46,0,0,1,.3-.68,4.54,4.54,0,0,0,.3-.49l-.06-1.23a1,1,0,0,0,.12-.19l.44-.73a3.69,3.69,0,0,1-.06-.69l.13-1.05a2.27,2.27,0,0,0-1,1,1.25,1.25,0,0,1-1.12.77c-.4.72-.7,1.07-.92,1a1,1,0,0,0-.18.26l-.45.25-.53-.06-.19.79a2.5,2.5,0,0,0-.9.68,2.77,2.77,0,0,1-.65.61l-.54.51h-.5a2.08,2.08,0,0,1-1,1.42l-.26.31L221,298a2,2,0,0,1-.79,1.23c-.36,0-.85.33-1.47,1s-1.06,1-1.31,1q-2.74,0-4.46-3.44a4.5,4.5,0,0,0-.3-.48,2,2,0,0,1-.23-1.07,3,3,0,0,1,.33-1.67,9.53,9.53,0,0,0,.85-1.66c.35-.81.61-1.16.78-1.06a.91.91,0,0,0,.06-.38,1.68,1.68,0,0,0,.5-.91c0-.09,0-.13-.12-.13a1.3,1.3,0,0,0-.38.19l-.45.19a.66.66,0,0,0-.41.25,1.11,1.11,0,0,1-.44.36l-.51.3h-.09c-.13-.12-.22-.18-.26-.18a2.16,2.16,0,0,1-.32.63l-.38.06c-.46.48-.76.73-.89.73a2,2,0,0,1-.57-.23c-.29-.14-.44-.29-.44-.44l.22-1.23v-.57s.09-.12.25-.25.22-.23.51-.68A1.28,1.28,0,0,1,211.75,288.81Z"/><path class="cls-1" d="M242.31,298.57l-.25-1.61a1.56,1.56,0,0,1,.19-.6.4.4,0,0,0,.31-.13l-.19-.57a3.08,3.08,0,0,1,.62-1.91,3.81,3.81,0,0,0,.68-1.09,13.59,13.59,0,0,1,.9-1.84,11.5,11.5,0,0,1,1.25-2l.19-.41.25-.06a7.63,7.63,0,0,1,2.06-2.12,3.86,3.86,0,0,1,1.07-1.13c.42-.3.71-.51.85-.63a1.34,1.34,0,0,1,.67-.26l.12-.06a2.52,2.52,0,0,1,1.58-.92,3.4,3.4,0,0,1,.89-.5h.35a.67.67,0,0,0,.38-.13.68.68,0,0,1,.38-.12,2.47,2.47,0,0,1,.66.25c.34-.34.61-.51.82-.51a2.23,2.23,0,0,1,1.34.51,2.17,2.17,0,0,1,.87,1.23,2.64,2.64,0,0,0,.32.85,2.23,2.23,0,0,1,.25.32c.17,0,.39-.39.67-1.17l.38-.5a6.32,6.32,0,0,0,1.17-2.59,1.87,1.87,0,0,0,.19-.53,12.26,12.26,0,0,1,.67-1.56,8.86,8.86,0,0,0,1.3-2.71l.38-.57a.82.82,0,0,0,.42-.55,1.25,1.25,0,0,1,.19-.56l.36-.61a2.81,2.81,0,0,1,.33-.49,3.5,3.5,0,0,0,.38-.87c.17-.49.37-.77.62-.84a2.56,2.56,0,0,0,.74-.34l.06-.23-.13-.44q0-.37.84-1.32a11.15,11.15,0,0,0,1.2-1.57q.36-.62,1.23-1.89a8,8,0,0,1,1.25-1.56l.73-.76a1.61,1.61,0,0,1,1.42-.73,2.18,2.18,0,0,1,1.45.74,2.16,2.16,0,0,1,.76,1.47,4.82,4.82,0,0,1-.35,1.17l-.06.38a2.79,2.79,0,0,1-.35,1.2,4.17,4.17,0,0,0-.41,1.07l-1.77,4.33a1.37,1.37,0,0,0-.38.19c-.55,1.2-1,1.85-1.29,2v.63c0,.23-.15.4-.44.5l-.13.07a4.28,4.28,0,0,1-.73,1.73,3.74,3.74,0,0,0-.64,1.09.84.84,0,0,1-.65.62c-.3,0-.44.45-.44,1.23-.09.42-.3.63-.64.63s-.51.27-.6.82-.49.84-1.23.89a.76.76,0,0,0-.38.44l.26.79a6.41,6.41,0,0,1-1.17,1.48l-.25.82c-.4.15-.73,1.23-1,3.25l-.38,2.18.06.85-.12.45.37,1.29-.06.73c0,.34.13.5.38.5s.41-.19.85-.57l.44-.18a5.43,5.43,0,0,0,2.46-2,1.32,1.32,0,0,1,.46-.26,1,1,0,0,0,.49-.34,2.23,2.23,0,0,1,.25-.32,8.2,8.2,0,0,0,2.49-2.21,2.39,2.39,0,0,1,1.16-1.14L272,289a1.07,1.07,0,0,1,.63-.31c.35,0,.53.1.53.31l-.25.89a5.2,5.2,0,0,1,.31,1,1.24,1.24,0,0,1-1,1.35,3.09,3.09,0,0,0-.65.95,1.22,1.22,0,0,1-1,.66,3.19,3.19,0,0,1-1,1c-.29.16-.44.32-.44.49v.28a2.22,2.22,0,0,1-.44.51l-.6-.13a5.44,5.44,0,0,1-.57,1,.5.5,0,0,0-.29-.12.84.84,0,0,0-.72.53c-.19.36-.33.54-.41.54h-.73a4,4,0,0,0-.5.41,1.76,1.76,0,0,1-1.17.32l-1,.19a4.1,4.1,0,0,1-2.56-.9,2.75,2.75,0,0,1-1.25-1.65,6.54,6.54,0,0,0-.52-1.78l-.06-1.3c-.24-1.34-.5-2-.79-2l-.07.41-.25.13c-.13.65-.34,1-.63,1a1.39,1.39,0,0,0-.41.32l-.19.12c-.09,0-.21.22-.37.54a4.82,4.82,0,0,1-1.31,1.32q-.43,1.17-.66,1.17l-.38-.25h-.06c-.17,0-.31.25-.42.74s-.31.74-.63.74c-.08,0-.16.15-.24.43a.71.71,0,0,1-.55.54c-.29.07-.56.36-.79.87s-.39.75-.47.75a.45.45,0,0,1-.19-.06l-.54.13a7.46,7.46,0,0,0-.44.72,2,2,0,0,0-.51.26,3.57,3.57,0,0,1-2.59.94,2.94,2.94,0,0,1-1.8-.49,2.07,2.07,0,0,1-.79-.83,5,5,0,0,0-.48-.87A3,3,0,0,1,242.31,298.57Zm12.61-7.17.22-.41a1.14,1.14,0,0,0,.7-.95,11.64,11.64,0,0,0,1.29-1.64,8.25,8.25,0,0,0,1-1.61,1,1,0,0,0-.72-.31,1.68,1.68,0,0,0-.38.12,3,3,0,0,1-.65.19,2.89,2.89,0,0,0-.71.25l-.79-.12a4.08,4.08,0,0,0-1.55.91l-.72-.12c-.13,0-.34.27-.64.82l-1.61,1.29h-.19c-.29,0-.49.27-.6.79a3.58,3.58,0,0,1-1,1,1.43,1.43,0,0,0-.66.77v.41a2.81,2.81,0,0,0-.89,1.48,3,3,0,0,0-.86,1.36,5.52,5.52,0,0,1-.49,1.23,7.82,7.82,0,0,1,.19,1.09c0,.43.25.65.63.65a3.07,3.07,0,0,0,2-1.11,5.26,5.26,0,0,1,.54-.34,8.63,8.63,0,0,0,1.31-1.12,7.43,7.43,0,0,1,.93-.87c.21-.21.34-.32.38-.32l.25-.25c0-.08.09-.18.27-.28a4.06,4.06,0,0,0,.71-.65,2.33,2.33,0,0,1,.68-.59.6.6,0,0,0,.33-.26,1,1,0,0,1,.32-.34.45.45,0,0,0,.22-.34l.06-.38Zm11-12.82-.32.92c.27,0,.52-.33.73-.85a12.64,12.64,0,0,1,1.29-1.68c.28,0,.48-.17.62-.52a2.7,2.7,0,0,1,.74-1,2.08,2.08,0,0,1,.47-.86,8.42,8.42,0,0,0,.62-.9,3.45,3.45,0,0,1,.58-.71,4.11,4.11,0,0,0,.84-1.51,3.32,3.32,0,0,1,.68-1.3,1.08,1.08,0,0,0,.28-.88c0-.61,0-.92-.12-.92s-.34.12-.43.37a3.59,3.59,0,0,1-.62.93l-1.07,1.8a9.58,9.58,0,0,0-.84,1.7c-.13.42-.29.67-.47.74a2,2,0,0,0-.65.62l-.44.44a4.48,4.48,0,0,0-.25.92l-.29.25v.6a.91.91,0,0,1-.47.74c-.32.22-.47.36-.47.43Z"/><path class="cls-1" d="M272.69,288.81l.44.19a1.28,1.28,0,0,1,.61-.91H274c.21,0,.49-.29.82-.86l.54-.31a.94.94,0,0,0,.38.06.47.47,0,0,0,.37-.25,8.39,8.39,0,0,1,.87-1h.13a.73.73,0,0,0,.46-.28.93.93,0,0,1,.71-.29l1.08-.28a4.55,4.55,0,0,1,.57-.13c.19-.06.65.32,1.39,1.15a3.77,3.77,0,0,1,1.1,2.42.74.74,0,0,1-.69.79l-.16.12v.64l-.54,1.16a1,1,0,0,1-.53.6c-.19.34-.33.57-.41.7l-.45.06-.19.19v.79a9.49,9.49,0,0,0-.82,1.66,6.21,6.21,0,0,0-.53,1.63c0,.4.08.59.25.59a.61.61,0,0,0,.38-.15,4,4,0,0,1,.52-.37,1.61,1.61,0,0,0,.49-.42,1.31,1.31,0,0,1,.66-.4,2.35,2.35,0,0,0,.95-.64,7.7,7.7,0,0,1,.63-.64,3.31,3.31,0,0,0,.41-.42c.15-.18.24-.27.28-.27a2.09,2.09,0,0,0,.6-.13,2.64,2.64,0,0,1,.13-.5l.76-.38,1.83-1.64.25-.32a4.31,4.31,0,0,0,.63-.19,2.07,2.07,0,0,1,.85-1.23c0-.08.11-.15.32-.19a2.14,2.14,0,0,1,.64-.8,2.35,2.35,0,0,0,.65-.75l.73-.6a.82.82,0,0,0,.44-.37,16.32,16.32,0,0,1,2-1.66,2.91,2.91,0,0,1,1.28-.21,1.78,1.78,0,0,1,1.44.68,3.84,3.84,0,0,0,1.2,1,1.36,1.36,0,0,1,.64,1.32,9.68,9.68,0,0,1-1.42,3.51,19.06,19.06,0,0,0-.94,3.33c0,.41-.12.65-.29.71s-.25.14-.25.22v.13c0,.5.08.76.25.76s.3-.11.52-.32a4.47,4.47,0,0,1,1.34-.7l.29.07c.6-.93,1-1.43,1.22-1.5a1.42,1.42,0,0,0,.63-.57,1,1,0,0,1,.77-.49.91.91,0,0,0,.58-.16c0-.5.44-1.07,1.25-1.7a5.55,5.55,0,0,1,1.4-.95c.21,0,.37.16.5.47a1.74,1.74,0,0,0,.39.65q.21.18.21.3v.57a.53.53,0,0,1-.41.54,1.79,1.79,0,0,1-.57.82l-.57-.07-.26.35c-.08.11-.12.15-.15.13s-.46.32-.89.83-.82.95-1.15,1.28l-.13.19a1.6,1.6,0,0,1-.47.26l-.57.47A1.19,1.19,0,0,0,298,297s-.13.08-.26.25a3.64,3.64,0,0,1-.82.65,2.87,2.87,0,0,0-.93.9l-.51.5-.66.1c-.06,0-.17.09-.31.28l-.57.73a1.52,1.52,0,0,1-1.29.54c-.13,0-.29-.11-.49-.34a5.91,5.91,0,0,0-.57-.56,16.31,16.31,0,0,1-1.2-1.42,12.72,12.72,0,0,1-.93-1.25l.19-1.11-.06-.75a1.46,1.46,0,0,1,.3-.68,4.54,4.54,0,0,0,.3-.49l-.06-1.23a1,1,0,0,0,.12-.19l.44-.73a3.69,3.69,0,0,1-.06-.69l.13-1.05a2.27,2.27,0,0,0-1,1,1.25,1.25,0,0,1-1.12.77c-.4.72-.71,1.07-.92,1a1.43,1.43,0,0,0-.19.26l-.44.25-.53-.06-.19.79a2.5,2.5,0,0,0-.9.68,2.77,2.77,0,0,1-.65.61l-.54.51h-.5a2.08,2.08,0,0,1-1,1.42l-.26.31L282,298a2,2,0,0,1-.79,1.23c-.36,0-.85.33-1.47,1s-1.06,1-1.31,1q-2.75,0-4.46-3.44a4.5,4.5,0,0,0-.3-.48,2,2,0,0,1-.23-1.07,3,3,0,0,1,.33-1.67,9.53,9.53,0,0,0,.85-1.66c.35-.81.61-1.16.78-1.06a.91.91,0,0,0,.06-.38,1.68,1.68,0,0,0,.5-.91c0-.09,0-.13-.12-.13a1.3,1.3,0,0,0-.38.19l-.45.19a.66.66,0,0,0-.41.25,1.11,1.11,0,0,1-.44.36l-.51.3h-.09c-.13-.12-.22-.18-.26-.18a2.16,2.16,0,0,1-.32.63l-.38.06c-.46.48-.76.73-.89.73a2,2,0,0,1-.57-.23c-.29-.14-.44-.29-.44-.44l.22-1.23v-.57s.09-.12.25-.25.22-.23.51-.68A1.28,1.28,0,0,1,272.69,288.81Z"/><path class="cls-1" d="M329.72,295.41h.13l.32.13a.17.17,0,0,0,.12-.06,1.12,1.12,0,0,1,.51-.92,1.43,1.43,0,0,1,.71-.92c.37-.21.95-.55,1.76-1l.79-.69.38-.19.25-.32a.94.94,0,0,1,.66-.41c.32,0,.48.12.48.35l-.28.63.12,1a1.47,1.47,0,0,1-.39,1c-.27.3-.67.73-1.22,1.3l-1.61,1.7-.86.44a3.14,3.14,0,0,0-.57.45l-1.23,1a.79.79,0,0,1-.28.66H329l-.25.13a2.57,2.57,0,0,1-1.3,1.17l-.44.31a.65.65,0,0,1-.41.19l-.89-.13-.6.13a1.46,1.46,0,0,1-.68-.25,4.26,4.26,0,0,0-.87-.4c-.29-.09-.67-.48-1.12-1.16a5.61,5.61,0,0,1-.74-1.35,1.17,1.17,0,0,0-.15-.42,1.51,1.51,0,0,1-.14-.37,4.35,4.35,0,0,1,.29-.63v-.06a1.46,1.46,0,0,0-.18-.44,2,2,0,0,1-.17-.85,1.87,1.87,0,0,0-.19-.73c.17-.17.25-.3.25-.38a1.09,1.09,0,0,0-.09-.36,1,1,0,0,1-.1-.37l.19-1.54-.12-.79.06-.76q0-.66-.57-.66a1.09,1.09,0,0,0-.63.34l-.22.07a7.09,7.09,0,0,0-1.19.68,1.15,1.15,0,0,1-.73.26,1.59,1.59,0,0,1-.72.35l-.25.19a3.2,3.2,0,0,1-.5.38,7.41,7.41,0,0,1-1.18,1.06c-.79.64-1.5,1.24-2.13,1.81a3.61,3.61,0,0,1-1.37.93q-.42.09-.42.81c0,.08-.19.25-.57.5a4.59,4.59,0,0,0-.66.7,2.86,2.86,0,0,0-.56-.38c-.28,0-.48.35-.61,1-.12.28-.46.44-1,.51a1.28,1.28,0,0,0-.22.47l-.13.13h-.31c-.05,0-.19.12-.45.36a1.89,1.89,0,0,1-.66.46c-.28.57-.51.85-.7.85a.82.82,0,0,1-.36-.13,3.89,3.89,0,0,0-.59-.22c-.23-.06-.49-.32-.77-.77a2.26,2.26,0,0,1-.43-1.15c0-2.34.46-3.61,1.36-3.82l.06-.13v-.25a.6.6,0,0,1,.37-.59,2,2,0,0,0,.74-.69,2.37,2.37,0,0,1,.5-.58h.41c.09,0,.13-.23.13-.67a.45.45,0,0,1,.16-.34.78.78,0,0,0,.19-.46,2.7,2.7,0,0,1,.46-1,2.91,2.91,0,0,0,.42-.81l-.06-.12a3.3,3.3,0,0,1-1.14.79c-.23,0-.55.34-.95.91l-.5-.09a12.22,12.22,0,0,1-1.64,1.1,1.75,1.75,0,0,0-.7.73.26.26,0,0,1-.22.25,3.26,3.26,0,0,0-.83.51H302c-.52,0-.79-.38-.79-1.14l.66-1.8a2.66,2.66,0,0,1,1.35-1.44A17,17,0,0,0,305,288.4a2.68,2.68,0,0,1,1.45-.57l.22-.31a2.45,2.45,0,0,0,1.45-1.3c.25-.59.6-.88,1-.88a3.06,3.06,0,0,1,2.65,1.28,4,4,0,0,1,.92,2l.06.86a5.51,5.51,0,0,1-.19,1.23,1.85,1.85,0,0,0-.38.85c0,.17.11.25.32.25a.88.88,0,0,0,.5-.26,4.06,4.06,0,0,1,.71-.49,1.12,1.12,0,0,0,.46-.38,1.77,1.77,0,0,1,1.1-1,2.94,2.94,0,0,0,1-.48l.32-.25.25-.47a3.5,3.5,0,0,0,1.13-.7,1.35,1.35,0,0,1,.76-.41,2.5,2.5,0,0,0,1.07-.57l.48-.12.44-.26a1.16,1.16,0,0,1,.38-.15c.21-.07.52-.18.93-.34a3.13,3.13,0,0,1,.84-.23A3,3,0,0,1,325.4,287a4,4,0,0,1,.94,2.09l-.07.56.13.86v.12l-.25,1.74.06.6a2.69,2.69,0,0,1-.63,2.05c-.11,0-.16.15-.16.32v.28l.63,1.33c.19.46.34.69.44.69l1-.28a1.27,1.27,0,0,0,.72-.66,4.83,4.83,0,0,0,.89-.76Q329.32,295.41,329.72,295.41Z"/><path class="cls-1" d="M9.59,134.62C-10,186.72-2.51,277.55,59.44,337.23s167.17,80.24,248.2,32.37c70.28-41.52,116.27-125,97.25-217.9C387.94,69,326.19,15.69,272.35,0c.66,1.88,2.45,2.1,3.89,2.81,14.74,7.32,30.08,13.65,43.31,23.65,27.9,21.09,50.57,46.65,66.21,78.22a191.49,191.49,0,0,1,20,75.72,199.25,199.25,0,0,1-11.26,77,194.78,194.78,0,0,1-39.13,66.21c-22.37,25-49.57,43.12-81.86,53.31a179.71,179.71,0,0,1-70.49,8.12c-38.28-3.38-71.22-19-99-45.18C70.94,308.64,51,269.73,41,225.76Q24,151.11,47.4,77.82c1.53-4.81,3.4-9.72,3.76-16.06-8.59,7.42-12.77,16.15-16.32,25.07-9.17,23-13.19,47.19-13.24,71.81-.08,47.86,10.84,93.06,35.21,134.62a204.81,204.81,0,0,0,37.91,47.32,197.23,197.23,0,0,0,26.12,20.3,185.43,185.43,0,0,0,36,18.3c28.46,10.36,51.77,9.27,51.71,9.89s-18.71.74-40.71-3.89a173.88,173.88,0,0,1-33.74-10.65c-1.66-.72-5.05-2.22-9.26-4.35a183.85,183.85,0,0,1-26-16,203.06,203.06,0,0,1-32-30,213,213,0,0,1-31-47c-7.31-15.3-10.7-27.3-14-39-8-28.28-11.4-56.3-11-71,0-1.59.24-7.12,0-14.7S10.05,138.69,9.59,134.62Z"/><path class="cls-1" d="M120.21,301c-.19-5.74-2.93-10.52-5.44-15.3-12.87-24.54-18.46-50.9-19.34-78.34a227.88,227.88,0,0,1,13.34-83.81,283.4,283.4,0,0,1,28.35-58.2c14.19-22.25,30.36-42.94,49.52-61.19.78-.75,1.94-1.42,1.13-3.43a65.56,65.56,0,0,0-20.1,8c-20.5,12.17-35,30.13-47.1,50.1C105.22,84,95.51,111.57,89.28,140.39a217.74,217.74,0,0,0-1.45,86.31,185.76,185.76,0,0,0,18,52.16A118.68,118.68,0,0,0,120.21,301Z"/><path class="cls-1" d="M149.77,2.12l-1-1.17C144.83,3,140.61,4.54,137,7,115.52,21.81,101,42.4,90.27,65.64a286.76,286.76,0,0,0-23.06,76.7c-7.87,50.39-1.58,98.19,23.89,142.85,8.93,15.67,18.89,30.64,32.4,42.87,1.46,1.32,2.78,3.18,5.82,2.77l-2.31-3.3c-7.81-11.19-17.38-21.14-24.19-33C86.52,266.08,78.66,235.08,77,202.57c-1.8-34.26,2.59-67.68,14.53-100.09,10.43-28.31,23.65-55,42-79C139,16.38,144.35,9.24,149.77,2.12Z"/><path class="cls-1" d="M100.13,23.39c-1.53-.8-2.27-.06-3,.59-8.24,7.56-16.26,15.37-22.5,24.7C60,70.57,50.84,94.77,46.18,120.57A252.29,252.29,0,0,0,50,230c8.58,33,22.81,63.2,45.44,89,12.33,14,25.76,27,41.86,36.83,2.56,1.56,5,3.42,9.32,2.85-9.53-6.31-17.29-13.35-25.08-20.31-13.49-12-25.4-25.53-34.76-41-13.22-21.85-21.75-45.53-26.42-70.67a280.91,280.91,0,0,1-1.18-95.44C64,100.59,74.76,71.8,88.94,44.29,92.54,37.28,96.37,30.39,100.13,23.39Z"/><path class="cls-1" d="M121.35,270.94c-.47-2.6-.85-5.21-1.44-7.77-.63-2.76-1.54-5.45-2.18-8.2-8.44-36.7-5.35-72.74,6.14-108.3C134.4,114.11,151.13,85,172.44,58.34,185.39,42.13,199.32,27,215.78,14.29c1.86-1.44,5.36-3,4.23-5.35-1-2.2-4.56-.8-7-.46-18.5,2.63-31.74,14-43.63,27.08-21.68,23.77-36.84,51.73-49.19,81.15C105,153,99.49,190.58,107.07,229.63,109.86,244,114.2,257.91,121.35,270.94Z"/><path class="cls-1" d="M128.79,241c.06-.8.18-1.6.19-2.4,0-9-.68-18,.18-27,3.23-33.26,13.93-64.13,30.29-93.27a273.91,273.91,0,0,1,47.87-62.31c10.41-10.17,22.4-18.35,33-28.21,1-1,2.95-1.58,2.32-3.42-.56-1.65-2.39-1.59-3.84-1.81A28.66,28.66,0,0,0,220.49,26c-13.28,7.15-23.85,17.46-33.5,28.8A333.41,333.41,0,0,0,150.32,107c-9,15.88-16.85,32.08-21.26,49.87C122.11,184.87,120.43,212.92,128.79,241Z"/><path class="cls-1" d="M141.15,216c2.57-1,2.29-2.95,2.71-4.45,6.32-22.42,12.1-45,23.12-65.8a268.4,268.4,0,0,1,64.16-79.64c7.1-6,14.61-11.58,21.86-17.45,1.61-1.3,4.46-2.7,3.7-4.79-.89-2.46-4-2.41-6.54-2.31a32.62,32.62,0,0,0-16.79,5.71C211,62,194.49,82.6,178.44,103.45c-9.52,12.38-16.88,26.28-23.25,40.64a170.4,170.4,0,0,0-14.3,56.37C140.5,205.5,141,210.61,141.15,216Z"/><path class="cls-1" d="M158.74,200.84a2.68,2.68,0,0,0,2.56-2.17,350.12,350.12,0,0,1,22.62-45.43c13.55-22.86,30.48-42.75,49.84-60.75a275,275,0,0,1,30.47-25c1-.73,2.63-1.33,2.29-2.92-.4-1.85-2.26-1.83-3.68-1.95a23.4,23.4,0,0,0-11.71,1.83,89.23,89.23,0,0,0-25.62,17.11c-27.39,26.64-50.11,56.45-61.79,93.5A111.16,111.16,0,0,0,158.74,200.84Z"/><path class="cls-1" d="M177.16,190.75c2.45-.57,2.85-1.95,3.56-3,9.36-14.35,18.27-29,28.8-42.55,12.91-16.61,26.45-32.54,44.23-44.32,5.11-3.39,9.74-7.53,14.5-11.43,1.21-1,3.08-2.1,2.18-4-.73-1.56-2.59-1.16-4.07-1.06a32.43,32.43,0,0,0-19.62,7.77c-25.24,21.84-47.32,46.3-62.31,76.5A76.86,76.86,0,0,0,177.16,190.75Z"/><path class="cls-1" d="M198,177.8l1.17.76c1.27-1.27,2.83-2.35,3.76-3.83,7.18-11.4,17.14-20.35,26.35-29.95C241.18,132.39,253.56,120.53,268,111c1.57-1,4.14-2.19,3.25-4.43-1-2.53-3.72-1.3-5.77-1.15a11,11,0,0,0-1.93.5c-7.83,2.07-14,6.89-19.77,12.23-12.61,11.71-24.13,24.44-33.46,38.93C205.93,163.77,201.25,170.41,198,177.8Z"/><path class="cls-1" d="M264,125.89c-18.8,10.25-32.4,25.83-44.86,42.56l1.14,1.16Z"/><path class="cls-1" d="M238,165.32c8.82-5.42,16.3-12.17,21.62-21.07C251.47,150.33,243.54,156.63,238,165.32Z"/><path class="cls-1" d="M333.93,262.67a7.12,7.12,0,0,1,2.56-2.58,6.84,6.84,0,0,1,3.56-1,6.92,6.92,0,0,1,3.57,1,7.09,7.09,0,0,1,2.58,2.58,7.15,7.15,0,0,1,0,7.12,7.19,7.19,0,0,1-2.58,2.56,6.92,6.92,0,0,1-3.57,1,6.84,6.84,0,0,1-3.56-1,7.22,7.22,0,0,1-2.56-2.56,7.15,7.15,0,0,1,0-7.12Zm1.54,6.22a5.28,5.28,0,0,0,1.91,2,5.14,5.14,0,0,0,2.67.72,5.07,5.07,0,0,0,2.66-.71,5.41,5.41,0,0,0,1.93-7.33,5.38,5.38,0,0,0-1.93-1.92,5.17,5.17,0,0,0-2.66-.71,5.26,5.26,0,0,0-2.64.69,5.17,5.17,0,0,0-1.92,1.91,5.23,5.23,0,0,0-.71,2.67A5.47,5.47,0,0,0,335.47,268.89Zm1.94,1.12v-7.65h3.09a2.87,2.87,0,0,1,2,.64,2.22,2.22,0,0,1,.69,1.71,2.39,2.39,0,0,1-.4,1.41,2.13,2.13,0,0,1-1.12.81l2,3.08h-2l-1.8-2.94h-.76V270Zm2.78-4.4a1.69,1.69,0,0,0,.95-.22.74.74,0,0,0,.33-.64c0-.6-.43-.9-1.28-.9h-1v1.76Z"/></svg>